<?xml version="1.0" standalone="no"?>
<!DOCTYPE svg PUBLIC "-//W3C//DTD SVG 1.1//EN" "http://www.w3.org/Graphics/SVG/1.1/DTD/svg11.dtd" >
<svg xmlns="http://www.w3.org/2000/svg" xmlns:xlink="http://www.w3.org/1999/xlink" version="1.1">
<metadata>
Created by FontForge 20170924 at Fri Jan  1 00:00:00 1904
 By www-data
Copyright 1990-1993 Bitstream Inc.  All rights reserved.
</metadata>
<defs>
<font id="ImperialBT-Roman" horiz-adv-x="1024" >
  <font-face 
    font-family="Imperial BT"
    font-weight="400"
    font-stretch="normal"
    units-per-em="2048"
    panose-1="2 4 6 3 5 5 5 2 3 4"
    ascent="1638"
    descent="-410"
    x-height="1042"
    cap-height="1470"
    bbox="-365 -498 2533 1980"
    underline-thickness="137"
    underline-position="-299"
    unicode-range="U+0020-F002"
  />
<missing-glyph horiz-adv-x="1229" 
d="M102 -362v1806h1024v-1806h-1024zM217 -248h795v1577h-795v-1577z" />
    <glyph glyph-name=".notdef" horiz-adv-x="1229" 
d="M102 -362v1806h1024v-1806h-1024zM217 -248h795v1577h-795v-1577z" />
    <glyph glyph-name=".null" horiz-adv-x="0" 
 />
    <glyph glyph-name="nonmarkingreturn" horiz-adv-x="584" 
 />
    <glyph glyph-name="space" unicode=" " horiz-adv-x="584" 
 />
    <glyph glyph-name="exclam" unicode="!" horiz-adv-x="631" 
d="M449 109q0 -56 -39 -95t-95 -39q-55 0 -94 39t-39 95q0 55 39 94t94 39q56 0 95 -39t39 -94zM344 434h-57l-97 867q-1 7 -1.5 15.5t-0.5 24.5q0 77 34 119.5t93 42.5q61 0 94 -41.5t33 -118.5q0 -17 -0.5 -26t-1.5 -17z" />
    <glyph glyph-name="quotedbl" unicode="&#x22;" horiz-adv-x="678" 
d="M518 864h-31l-65 457q0 2 -1 6q-3 22 -3 33q0 49 22.5 75.5t63.5 26.5q40 0 62 -26t22 -74q0 -14 -0.5 -23t-1.5 -18zM190 864h-32l-64 457l-3 25.5t-1 15.5q0 48 22 74t62 26q41 0 63.5 -26t22.5 -74q0 -9 -3 -34q-1 -5 -1 -7z" />
    <glyph glyph-name="numbersign" unicode="#" horiz-adv-x="1575" 
d="M700 868l-100 -286h289l102 286h-291zM778 1456h133l-168 -471h287l168 471h131l-166 -471h307l-40 -117h-310l-100 -286h332l-43 -115h-330l-166 -469h-133l166 469h-287l-166 -469h-131l166 469h-324l43 115h322l100 286h-348l43 117h348z" />
    <glyph glyph-name="dollar" unicode="$" horiz-adv-x="1165" 
d="M518 905v502q-108 -18 -171.5 -83t-63.5 -157q0 -87 56.5 -150t178.5 -112zM616 608v-545q116 11 186 83.5t70 179.5q0 87 -60 153.5t-196 128.5zM518 -240v207q-199 11 -321.5 100t-122.5 220q0 63 36 103t93 40q53 0 84.5 -33.5t31.5 -89.5q0 -33 -24.5 -76t-24.5 -57
q0 -36 72.5 -69t175.5 -37v589q-214 87 -304.5 191t-90.5 258q0 159 108 267t287 126v172h98v-168q176 -10 283 -92.5t107 -204.5q0 -57 -33.5 -93t-85.5 -36q-54 0 -86.5 33t-32.5 88q0 33 22.5 74t22.5 53q0 29 -55.5 53.5t-141.5 30.5v-547q233 -98 333 -206t100 -259
q0 -187 -118.5 -306t-313.5 -128l-1 -203h-98z" />
    <glyph glyph-name="percent" unicode="%" horiz-adv-x="1802" 
d="M1192 342q0 -134 41.5 -203t122.5 -69t130.5 74t49.5 198q0 133 -42.5 202.5t-123.5 69.5t-129.5 -73.5t-48.5 -198.5zM1028 322q0 156 98 259t244 103q149 0 239.5 -89t90.5 -235q0 -155 -98 -257.5t-244 -102.5q-148 0 -239 88.5t-91 233.5zM266 1128q0 -134 42 -203
t122 -69q81 0 129.5 73.5t48.5 198.5q0 135 -41.5 204t-122.5 69t-129.5 -73.5t-48.5 -199.5zM102 1108q0 157 97 259.5t243 102.5q150 0 241 -88.5t91 -234.5q0 -155 -98 -258t-244 -103q-147 0 -238.5 89t-91.5 233zM1251 1518h113l-815 -1565h-113z" />
    <glyph glyph-name="ampersand" unicode="&#x26;" horiz-adv-x="1706" 
d="M1137 260q85 -87 149.5 -125.5t124.5 -38.5q40 0 86 17t96 51l33 -43q-89 -79 -175 -118.5t-167 -39.5q-75 0 -145 37t-154 123q-129 -87 -231 -125.5t-199 -38.5q-202 0 -325.5 108.5t-123.5 284.5q0 148 89.5 260t267.5 189q-56 98 -82.5 179.5t-26.5 154.5
q0 161 106 266.5t269 105.5q146 0 244 -89.5t98 -221.5q0 -115 -86 -206.5t-283 -184.5q84 -133 178 -254.5t197 -228.5q76 88 114 158.5t38 123.5q0 47 -29.5 70t-105.5 33v65h499v-65q-48 -6 -88.5 -30.5t-91.5 -80.5q-5 -6 -25 -35q-112 -163 -251 -301zM514 721
q-101 -58 -152 -136t-51 -173q0 -138 100.5 -234t243.5 -96q64 0 130.5 25.5t140.5 78.5q-103 103 -204 234t-208 301zM649 903q130 68 194 146t64 168q0 82 -49 134t-127 52q-83 0 -137.5 -62.5t-54.5 -158.5q0 -63 27.5 -132.5t82.5 -146.5z" />
    <glyph glyph-name="quotesingle" unicode="'" horiz-adv-x="348" 
d="M190 864h-32l-66 457q-1 8 -1.5 16t-0.5 23q0 50 21.5 76t62.5 26t63.5 -26t22.5 -74q0 -9 -3 -34q-1 -5 -1 -7z" />
    <glyph glyph-name="parenleft" unicode="(" horiz-adv-x="815" 
d="M823 -461q-294 198 -440.5 445t-146.5 544q0 298 146.5 545t440.5 445l39 -48q-209 -193 -303 -418.5t-94 -523.5q0 -303 94 -525t303 -415z" />
    <glyph glyph-name="parenright" unicode=")" horiz-adv-x="815" 
d="M-10 1518q294 -198 441 -445t147 -545q0 -297 -147 -544t-441 -445l-39 49q209 193 303 415t94 525q0 304 -94 527t-303 415z" />
    <glyph glyph-name="asterisk" unicode="*" 
d="M526 1065v-14q0 -77 38 -167t38 -114q0 -43 -24 -68.5t-66 -25.5q-43 0 -67.5 23.5t-24.5 64.5q0 28 38 115.5t38 162.5v25q-88 -51 -137 -122l-1 -1v-1q-78 -105 -133 -105q-36 0 -62 27t-26 65q0 47 35.5 71.5t113.5 30.5q70 5 116 20t77 42q-68 48 -200 60
q-19 2 -29 3q-53 5 -83 31.5t-30 68.5q0 37 25.5 64t60.5 27q57 0 118 -86l15 -21q29 -40 64 -70.5t78 -52.5v10q0 76 -39 170t-39 123q0 39 25 62.5t67 23.5q44 0 67 -22.5t23 -65.5q0 -26 -37 -116.5t-37 -165.5v-21l1 1q92 57 137 122v1q76 108 137 108q32 0 58 -29.5
t26 -65.5t-30 -64t-73 -32h-3q-174 -15 -236 -67q73 -49 199 -58q21 -1 31 -2q51 -5 81.5 -34t30.5 -72q0 -34 -28 -61t-62 -27q-54 0 -125 99q-4 6 -7 10q-31 43 -64.5 71.5t-74.5 48.5z" />
    <glyph glyph-name="plus" unicode="+" horiz-adv-x="1706" 
d="M795 1221h118v-551h539v-117h-539v-553h-118v553h-541v117h541v551z" />
    <glyph glyph-name="comma" unicode="," horiz-adv-x="584" 
d="M127 -287q87 54 133.5 111t46.5 108q0 35 -45 46q-24 6 -39 12q-36 14 -58 45.5t-22 68.5q0 56 39.5 94t96.5 38q72 0 115.5 -55t43.5 -148q0 -118 -67.5 -213.5t-204.5 -171.5z" />
    <glyph glyph-name="hyphen" unicode="-" horiz-adv-x="711" 
d="M96 430v182h518v-182h-518z" />
    <glyph glyph-name="period" unicode="." horiz-adv-x="584" 
d="M160 115q0 55 38 94t93 39t94 -39t39 -94q0 -56 -39 -94.5t-94 -38.5t-93 38.5t-38 94.5z" />
    <glyph glyph-name="slash" unicode="/" horiz-adv-x="569" 
d="M524 1507h103l-535 -1697h-104z" />
    <glyph glyph-name="zero" unicode="0" horiz-adv-x="1165" 
d="M322 735q0 -200 9 -312t29 -171q35 -100 93 -154.5t131 -54.5q72 0 130 54.5t93 154.5q20 57 28.5 164t8.5 319t-8.5 318.5t-28.5 163.5q-35 100 -93 154t-130 54q-73 0 -131 -54t-93 -154q-20 -60 -29 -170.5t-9 -311.5zM90 735q0 349 137 560.5t357 211.5
q219 0 356 -211t137 -561t-137 -562t-356 -212t-356.5 212.5t-137.5 561.5z" />
    <glyph glyph-name="one" unicode="1" horiz-adv-x="1165" 
d="M270 0l1 76q133 5 178 43t45 145v877q0 100 -43 134.5t-181 39.5v74q102 24 210.5 52t233.5 62q-2 -53 -3.5 -91.5t-1.5 -61.5v-1080q0 -112 47.5 -152t178.5 -42l1 -76h-666z" />
    <glyph glyph-name="two" unicode="2" horiz-adv-x="1165" 
d="M66 0v127l395 428q153 167 229 310t76 263q0 133 -71 214t-185 81q-77 0 -135 -43t-58 -92v-4q0 -2 18.5 -35t18.5 -63q0 -54 -34.5 -89.5t-88.5 -35.5q-55 0 -90 39t-35 102q0 119 132.5 213t314.5 94q198 0 320 -111.5t122 -291.5q0 -239 -413 -622l-33 -31l-291 -269
h422q126 0 184.5 46.5t102.5 185.5h86q-27 -96 -47.5 -200t-34.5 -216h-905z" />
    <glyph glyph-name="three" unicode="3" horiz-adv-x="1165" 
d="M390 743l-1 99h12q168 0 263.5 77t95.5 211q0 139 -68 219.5t-186 80.5q-62 0 -99.5 -23.5t-37.5 -60.5q0 -16 11 -50t11 -53q0 -49 -36.5 -84t-88.5 -35t-87.5 37.5t-35.5 93.5q0 110 116.5 184t295.5 74q193 0 314.5 -99.5t121.5 -256.5q0 -139 -96.5 -232t-284.5 -132
q202 -28 314 -132t112 -264q0 -188 -146.5 -310t-377.5 -122q-193 0 -314.5 87.5t-121.5 221.5q0 67 37 109.5t96 42.5q53 0 89 -34t36 -85q0 -40 -37 -87t-37 -66q0 -41 63.5 -72t155.5 -31q147 0 228 90t81 252q0 172 -99.5 259t-298.5 91z" />
    <glyph glyph-name="four" unicode="4" horiz-adv-x="1165" 
d="M674 555v651l-490 -651h490zM449 0v76q134 5 179.5 43.5t45.5 144.5v170h-611v121l713 950h88v-950h236v-121h-236v-164q0 -110 47 -150.5t174 -43.5v-76h-636z" />
    <glyph glyph-name="five" unicode="5" horiz-adv-x="1165" 
d="M254 707l-98 6l59 757h758v-184h-647l-27 -360q60 47 129.5 70.5t151.5 23.5q202 0 335.5 -139t133.5 -351q0 -246 -153 -405.5t-388 -159.5q-178 0 -300 91t-122 218q0 73 42.5 120.5t107.5 47.5q49 0 82.5 -37.5t33.5 -93.5q0 -39 -28.5 -87.5t-28.5 -61.5
q0 -39 59.5 -73t139.5 -34q145 0 229 120t84 329q0 186 -77.5 289.5t-217.5 103.5q-84 0 -150.5 -49t-107.5 -141z" />
    <glyph glyph-name="six" unicode="6" horiz-adv-x="1165" 
d="M328 586q1 -266 68 -398.5t200 -132.5q113 0 179.5 106.5t66.5 291.5q0 163 -66.5 262.5t-173.5 99.5q-85 0 -157 -60t-117 -169zM324 748q61 88 143.5 133t185.5 45q181 0 304.5 -131t123.5 -324q0 -76 -21.5 -150t-62.5 -139q-67 -103 -167 -159t-218 -56
q-235 0 -375.5 195t-140.5 526q0 363 163.5 590t418.5 227q152 0 254 -73t102 -179q0 -67 -35 -106t-96 -39q-50 0 -86.5 33.5t-36.5 79.5q0 29 9.5 63.5t9.5 40.5q0 45 -31.5 69.5t-89.5 24.5q-170 0 -261.5 -173.5t-92.5 -497.5z" />
    <glyph glyph-name="seven" unicode="7" horiz-adv-x="1165" 
d="M393 0q28 228 149.5 520.5t383.5 753.5h-305q-141 0 -212.5 -10.5t-107.5 -34.5q-33 -22 -60.5 -64.5t-52.5 -107.5h-77l61 413h918v-104q-197 -342 -307.5 -687t-131.5 -679h-258z" />
    <glyph glyph-name="eight" unicode="8" horiz-adv-x="1165" 
d="M506 672q-121 -62 -183.5 -147t-62.5 -187q0 -128 87.5 -207.5t230.5 -79.5q134 0 221.5 73t87.5 183q0 88 -61 161t-185 134zM614 879q113 58 170.5 131t57.5 159q0 106 -75 177t-187 71q-115 0 -192 -69.5t-77 -171.5q0 -68 45 -127t129 -103zM401 741
q-135 80 -200.5 171.5t-65.5 201.5q0 167 127.5 281t315.5 114q185 0 303 -96.5t118 -245.5q0 -108 -67.5 -190.5t-218.5 -157.5q187 -90 273.5 -195t86.5 -243q0 -178 -144 -298t-360 -120q-215 0 -348 109.5t-133 283.5q0 116 75.5 209t237.5 176z" />
    <glyph glyph-name="nine" unicode="9" horiz-adv-x="1165" 
d="M831 884q-1 268 -67 400.5t-199 132.5q-113 0 -179.5 -106.5t-66.5 -290.5q0 -164 67 -264.5t173 -100.5q85 0 156 60t116 169zM837 724q-61 -89 -144 -134t-185 -45q-180 0 -304 130.5t-124 323.5q0 77 21.5 152t62.5 139q67 104 167 159.5t218 55.5q235 0 375.5 -195.5
t140.5 -527.5q0 -363 -163 -590t-419 -227q-152 0 -254 74.5t-102 179.5q0 67 35.5 106.5t95.5 39.5q50 0 85.5 -34t35.5 -79q0 -30 -9.5 -65t-9.5 -42q0 -44 31.5 -68t89.5 -24q170 0 262.5 174t93.5 497z" />
    <glyph glyph-name="colon" unicode=":" horiz-adv-x="631" 
d="M182 860q0 55 39 93t94 38q56 0 95 -38t39 -93t-39 -94t-95 -39q-55 0 -94 39t-39 94zM182 115q0 55 39 94t94 39q56 0 95 -39t39 -94q0 -56 -39 -94.5t-95 -38.5q-55 0 -94 38.5t-39 94.5z" />
    <glyph glyph-name="semicolon" unicode=";" horiz-adv-x="631" 
d="M182 860q0 55 39 93t94 38q56 0 95 -38t39 -93t-39 -94t-95 -39q-55 0 -94 39t-39 94zM154 -287q86 54 132 110.5t46 108.5q-1 35 -46 46q-23 6 -39 12q-35 14 -57 45.5t-22 68.5q0 56 39 94t96 38q73 0 117.5 -55.5t44.5 -147.5q0 -118 -68 -214t-204 -171z" />
    <glyph glyph-name="less" unicode="&#x3c;" horiz-adv-x="1706" 
d="M1442 1145v-127l-1000 -408l1000 -405v-129l-1178 483v103z" />
    <glyph glyph-name="equal" unicode="=" horiz-adv-x="1706" 
d="M254 477h1198v-117h-1198v117zM254 860h1198v-117h-1198v117z" />
    <glyph glyph-name="greater" unicode="&#x3e;" horiz-adv-x="1706" 
d="M264 1145l1178 -483v-103l-1178 -483v129l1000 405l-1000 408v127z" />
    <glyph glyph-name="question" unicode="?" horiz-adv-x="985" 
d="M377 436l-10 299h30q146 0 222.5 83t76.5 241q0 166 -67 262t-180 96q-66 0 -110 -27t-44 -65q0 -17 21.5 -55t21.5 -64q0 -45 -32.5 -76.5t-78.5 -31.5q-60 0 -95.5 35.5t-35.5 95.5q0 109 114 193.5t271 84.5q189 0 310.5 -121.5t121.5 -312.5q0 -194 -112.5 -305.5
t-319.5 -122.5l-28 -209h-76zM283 111q0 55 38.5 94t94.5 39q55 0 94 -39t39 -94q0 -56 -39 -95t-94 -39q-56 0 -94.5 39t-38.5 95z" />
    <glyph glyph-name="at" unicode="@" horiz-adv-x="2019" 
d="M1190 336q-62 -106 -139 -158.5t-170 -52.5q-125 0 -201 92t-76 244q0 108 49 216t138 193q65 64 144 100t155 36q87 0 143 -49.5t78 -145.5l53 180h143l-170 -610q0 -2 -1 -5q-17 -59 -17 -104q0 -47 25.5 -74.5t68.5 -27.5q34 0 79 17.5t85 48.5q122 90 187 231t65 315
q0 140 -50 252t-153 203q-90 79 -216 122.5t-267 43.5q-187 0 -341.5 -58.5t-275.5 -175.5q-130 -126 -197 -293.5t-67 -369.5q0 -175 57 -304.5t181 -234.5q114 -97 261 -146.5t320 -49.5q163 0 317.5 52t295.5 154l30 -36q-148 -110 -313 -166t-342 -56q-187 0 -342 46.5
t-274 138.5q-151 113 -229.5 274.5t-78.5 358.5q0 204 86 381t250 313q131 110 291 165.5t344 55.5q347 0 553.5 -187t206.5 -499q0 -157 -58 -297t-163 -236q-57 -52 -123.5 -80t-134.5 -28q-97 0 -149 52.5t-58 158.5zM1098 965q-54 0 -99 -31t-92 -100
q-72 -108 -114.5 -234t-42.5 -225q0 -93 40.5 -147t108.5 -54q66 0 126 44.5t116 133.5q57 94 91 202.5t34 197.5q0 93 -47.5 153t-120.5 60z" />
    <glyph glyph-name="A" unicode="A" horiz-adv-x="1540" 
d="M455 604h503l-241 570zM-39 0v76q69 9 114 48.5t87 129.5l567 1216h90l545 -1208q44 -99 97.5 -140t137.5 -46v-76h-649l1 76q94 5 134.5 29.5t40.5 74.5q0 25 -6.5 53.5t-19.5 57.5l-86 192h-611l-81 -190q-13 -30 -19 -55t-6 -48q0 -48 34.5 -72.5t135.5 -41.5v-76
h-506z" />
    <glyph glyph-name="B" unicode="B" horiz-adv-x="1446" 
d="M483 711v-441q0 -103 36.5 -131t166.5 -28q210 0 319 75t109 220q0 142 -96 223.5t-266 81.5h-269zM483 825h201q180 0 274.5 71.5t94.5 207.5q0 129 -86.5 194.5t-257.5 65.5h-226v-539zM74 0v76q100 3 141 39.5t41 122.5v997q0 86 -41.5 122.5t-140.5 39.5v73h704
q249 0 381.5 -90t132.5 -258q0 -128 -86.5 -214.5t-257.5 -129.5q201 -29 306.5 -125t105.5 -250q0 -174 -151.5 -288.5t-385.5 -114.5h-749z" />
    <glyph glyph-name="C" unicode="C" horiz-adv-x="1518" 
d="M1376 381l82 -57q-100 -180 -252 -269.5t-358 -89.5q-144 0 -268 44.5t-224 131.5q-128 112 -192 253.5t-64 316.5q0 143 43.5 272.5t128.5 239.5q107 137 252.5 210.5t309.5 73.5q123 0 251 -43t136 -43q27 0 51.5 19t42.5 53h69l17 -457h-78q-55 180 -169.5 274.5
t-279.5 94.5q-234 0 -378 -182.5t-144 -485.5q0 -290 149 -466.5t392 -176.5q142 0 260.5 70t222.5 217z" />
    <glyph glyph-name="D" unicode="D" horiz-adv-x="1677" 
d="M483 1362v-1088q0 -87 45 -124t150 -37q331 0 493 154.5t162 469.5q0 173 -54 302.5t-159 209.5q-79 61 -178.5 87t-269.5 26h-189zM74 0v76q100 3 141 39.5t41 122.5v997q0 86 -41.5 122.5t-140.5 39.5v73h559q249 0 380 -27.5t234 -90.5q158 -98 248 -261.5t90 -355.5
q0 -193 -89.5 -357.5t-246.5 -260.5q-102 -63 -228 -90t-388 -27h-559z" />
    <glyph glyph-name="E" unicode="E" horiz-adv-x="1421" 
d="M74 0v76q100 3 141 39.5t41 122.5v997q0 86 -41.5 122.5t-140.5 39.5v73h1198v-325h-80q-16 121 -75.5 168t-207.5 47h-426v-535h230q107 0 150.5 42.5t54.5 156.5h75v-514h-75q-11 117 -53 161t-142 44h-240v-432q0 -110 35.5 -143.5t145.5 -33.5h305q124 0 198 61
t117 198h78l-66 -365h-1222z" />
    <glyph glyph-name="F" unicode="F" horiz-adv-x="1298" 
d="M483 238q0 -88 44.5 -125t150.5 -37h10v-76h-614v76q100 3 141 39.5t41 122.5v997q0 86 -41.5 122.5t-140.5 39.5v73h1198v-331h-84q-17 128 -74 174.5t-217 46.5h-414v-535h230q107 0 150.5 42.5t54.5 156.5h75v-514h-75q-11 117 -53 161t-142 44h-240v-477z" />
    <glyph glyph-name="G" unicode="G" horiz-adv-x="1669" 
d="M1460 103q-140 -74 -275 -110t-270 -36q-132 0 -249 33.5t-220 99.5q-170 113 -258 277t-88 368q0 186 70.5 336.5t212.5 267.5q99 84 220.5 128t252.5 44t269 -48t145 -48q25 0 45.5 21t32.5 59h77v-428h-69q-64 163 -188 252.5t-283 89.5q-238 0 -386.5 -183
t-148.5 -481q0 -311 158.5 -494t425.5 -183q95 0 169 23t107 62q13 16 19 46.5t6 91.5v170q0 107 -49 149t-195 54v75h613v-75q-88 -12 -120 -45t-32 -121v-308q0 -14 1.5 -31.5t6.5 -55.5z" />
    <glyph glyph-name="H" unicode="H" horiz-adv-x="1706" 
d="M1223 831v404q0 87 -43.5 123.5t-149.5 38.5v73h602v-73q-99 -3 -140.5 -39.5t-41.5 -122.5v-997q0 -86 41 -122.5t141 -39.5v-76h-602l1 76q106 2 149 38t43 124v473h-740v-473q0 -87 44.5 -124t149.5 -38l1 -76h-604v76q100 3 141 39.5t41 122.5v997q0 86 -41.5 122.5
t-140.5 39.5v73h604v-73q-107 -2 -151 -38.5t-44 -123.5v-404h740z" />
    <glyph glyph-name="I" unicode="I" horiz-adv-x="743" 
d="M487 238q0 -88 43 -124t149 -38l1 -76h-617l1 76q107 2 150.5 38.5t43.5 123.5v997q0 87 -44 123.5t-151 38.5v73h617v-73q-106 -2 -149.5 -38.5t-43.5 -123.5v-997z" />
    <glyph glyph-name="J" unicode="J" horiz-adv-x="991" 
d="M940 1470v-73q-100 -3 -142 -40t-42 -122v-875q0 -198 -99.5 -298.5t-296.5 -100.5q-157 0 -261.5 76t-104.5 184q0 63 37.5 100t99.5 37q53 0 86 -31.5t33 -82.5q0 -23 -11.5 -62t-11.5 -55q0 -26 35.5 -45t85.5 -19q99 0 138.5 62.5t39.5 234.5v875q0 88 -44 125
t-150 37h-10v73h618z" />
    <glyph glyph-name="K" unicode="K" horiz-adv-x="1565" 
d="M483 688l545 492q50 45 71 74t21 53q0 42 -35.5 61.5t-138.5 28.5v73h621v-73q-73 -11 -140.5 -45t-132.5 -92l-399 -359l399 -610q83 -127 143.5 -169t145.5 -46v-76h-649v76q77 0 116.5 15t39.5 44q0 22 -12 49.5t-50 85.5l-309 471l-236 -213v-290q0 -86 41.5 -122.5
t140.5 -39.5l1 -76h-592v76q100 3 141 39.5t41 122.5v997q0 86 -41.5 122.5t-140.5 39.5v73h592v-73q-101 -4 -142 -40t-41 -122v-547z" />
    <glyph glyph-name="L" unicode="L" horiz-adv-x="1298" 
d="M74 0v76q100 3 141 39.5t41 122.5v997q0 86 -41.5 122.5t-140.5 39.5v73h618v-73h-10q-109 0 -154 -37t-45 -125v-948q0 -110 35.5 -142t167.5 -32h205q141 0 219.5 62t134.5 220h74l-76 -395h-1169z" />
    <glyph glyph-name="M" unicode="M" horiz-adv-x="2007" 
d="M74 0v76h6q91 0 133.5 41t42.5 131v987q0 86 -41.5 122.5t-140.5 39.5v73h481l451 -1116l462 1116h461v-73q-99 -3 -140.5 -39.5t-41.5 -122.5v-997q0 -86 41 -122.5t141 -39.5v-76h-596l1 76q106 2 149 38t43 124v1060l-535 -1298h-82l-522 1292v-1044q0 -96 42 -133
t152 -39l1 -76h-508z" />
    <glyph glyph-name="N" unicode="N" horiz-adv-x="1706" 
d="M387 248q0 -90 42.5 -131t135.5 -41h15v-76h-506v76h6q91 0 133.5 41t42.5 131v1065q-30 38 -75 58.5t-107 25.5v73h391l874 -1079v830q0 92 -46.5 134t-147.5 42v73h508v-73q-95 -2 -139 -44.5t-44 -131.5v-1244h-81l-1002 1237v-966z" />
    <glyph glyph-name="O" unicode="O" horiz-adv-x="1659" 
d="M829 63q220 0 350 180.5t130 491.5t-130 491.5t-350 180.5q-219 0 -348 -180.5t-129 -491.5t129 -491.5t348 -180.5zM829 -39q-147 0 -279 54.5t-231 156.5q-105 107 -162 253t-57 310t56.5 309t162.5 252q102 104 233.5 158.5t276.5 54.5q146 0 277.5 -54.5
t232.5 -158.5q107 -108 164.5 -253t57.5 -308t-57.5 -309t-164.5 -254q-99 -102 -230.5 -156.5t-279.5 -54.5z" />
    <glyph glyph-name="P" unicode="P" horiz-adv-x="1356" 
d="M483 1362v-629q54 -9 97.5 -13.5t78.5 -4.5q180 0 281.5 86t101.5 237q0 166 -103.5 245t-322.5 79h-133zM483 238q0 -88 44.5 -125t150.5 -37h10v-76h-614v76q100 3 141 39.5t41 122.5v997q0 86 -41.5 122.5t-140.5 39.5v73h624q290 0 440 -110t150 -324
q0 -199 -168.5 -315.5t-462.5 -116.5q-37 0 -78.5 2.5t-94.5 7.5z" />
    <glyph glyph-name="Q" unicode="Q" horiz-adv-x="1659" 
d="M774 -35q-300 31 -487 245t-187 525q0 164 56.5 309t162.5 252q102 104 233.5 158.5t276.5 54.5q147 0 279 -55t231 -158q108 -110 165 -254t57 -307q0 -275 -144.5 -474t-400.5 -275l125 -103q122 -100 171 -126.5t89 -26.5q30 0 68 13.5t81 39.5l43 -53
q-68 -78 -142 -116t-157 -38q-75 0 -145 29.5t-129 85.5q-35 34 -114 128t-132 146zM829 63q220 0 350 180.5t130 491.5t-130 491.5t-350 180.5q-219 0 -348 -180.5t-129 -491.5t129 -491.5t348 -180.5z" />
    <glyph glyph-name="R" unicode="R" horiz-adv-x="1489" 
d="M729 1470q302 0 454 -100.5t152 -300.5q0 -136 -99.5 -232.5t-281.5 -136.5l332 -487q55 -80 101 -108t114 -29v-76h-344l-461 674q-14 0 -43.5 -1t-44.5 -1q-23 0 -48.5 0.5t-75.5 3.5l-1 -438q0 -88 44.5 -125t150.5 -37h10v-76h-614v76q100 3 141 39.5t41 122.5v997
q0 86 -41.5 122.5t-140.5 39.5v73h655zM483 1362v-576h203q210 0 313 71t103 216q0 150 -102 219.5t-324 69.5h-193z" />
    <glyph glyph-name="S" unicode="S" horiz-adv-x="1356" 
d="M217 -25h-78l-24 476h71q76 -192 195 -286.5t285 -94.5q147 0 239 76.5t92 197.5q0 97 -64 161t-224 122l-164 59q-214 76 -306 170.5t-92 235.5q0 181 136 297t352 116q98 0 208.5 -41t125.5 -41q25 0 44.5 19t33.5 55h69l10 -428h-67q-50 160 -157.5 244t-262.5 84
q-133 0 -214 -65t-81 -169q0 -81 60 -137t208 -108l185 -66q231 -81 327.5 -180.5t96.5 -249.5q0 -198 -149 -328.5t-380 -130.5q-130 0 -263 49t-140 49q-25 0 -41 -19t-31 -67z" />
    <glyph glyph-name="T" unicode="T" horiz-adv-x="1384" 
d="M1337 1470l21 -362h-76q-28 144 -98 200t-226 56h-151v-1126q0 -87 43.5 -123.5t150.5 -38.5v-76h-618v76q106 1 150.5 38t44.5 124v1126h-152q-156 0 -225.5 -56t-98.5 -200h-75l20 362h1290z" />
    <glyph glyph-name="U" unicode="U" horiz-adv-x="1659" 
d="M1305 1221q0 92 -45 134t-142 42h-6v73h500v-73q-95 -2 -138.5 -44.5t-43.5 -131.5v-658q0 -306 -145.5 -454t-444.5 -148q-301 0 -449.5 134t-148.5 403v737q0 86 -41 122t-142 40v73h598v-73q-106 -2 -150 -38.5t-44 -123.5v-715q0 -218 100.5 -324t306.5 -106
q225 0 330 113.5t105 357.5v660z" />
    <glyph glyph-name="V" unicode="V" horiz-adv-x="1497" 
d="M1171 1180q13 29 19 54t6 46q0 55 -41 83.5t-127 33.5v73h504v-73q-68 -9 -114.5 -49.5t-86.5 -128.5l-549 -1219h-90l-528 1210q-41 91 -89 132.5t-124 54.5v73h624v-73q-94 -5 -136 -29.5t-42 -75.5q0 -23 7 -51.5t20 -58.5l371 -881z" />
    <glyph glyph-name="W" unicode="W" horiz-adv-x="2134" 
d="M150 1210q-38 96 -78.5 135t-106.5 52v73h565v-73q-93 -5 -134.5 -29.5t-41.5 -75.5q0 -21 6.5 -47.5t20.5 -62.5l344 -863l283 713l-76 178q-39 92 -86 133t-123 54v73h592v-73q-94 -5 -135 -29.5t-41 -75.5q0 -22 6.5 -50t19.5 -60l340 -867l340 864q1 3 4 10
q23 63 23 91q0 55 -42 83.5t-130 33.5v73h485v-73q-67 -14 -113 -56.5t-77 -121.5l-494 -1219h-88l-344 877l-346 -877h-88z" />
    <glyph glyph-name="X" unicode="X" horiz-adv-x="1626" 
d="M465 254q-26 -30 -34.5 -48t-8.5 -38q0 -40 41 -62t131 -30v-76h-574l1 76q63 3 122.5 40.5t135.5 123.5l421 483l-399 487q-85 105 -143.5 143.5t-126.5 43.5v73h651v-73q-72 -2 -112 -21t-40 -51q0 -19 11.5 -43t31.5 -49l281 -336l285 320q27 30 37 51t10 43
q0 36 -41.5 58t-120.5 28v73h545v-73q-65 -6 -128 -47.5t-141 -130.5l-366 -414l446 -543l3 -3q148 -181 233 -183v-76h-637v76q82 6 120 24.5t38 51.5q0 21 -10 45t-29 47l-316 383z" />
    <glyph glyph-name="Y" unicode="Y" horiz-adv-x="1481" 
d="M858 639v-401q0 -87 43.5 -123.5t150.5 -38.5l1 -76h-617l1 76q105 1 149.5 38t44.5 124v389l-422 557q-2 2 -7 9q-134 180 -247 204v73h620v-73q-72 0 -111.5 -20.5t-39.5 -57.5q0 -24 12 -54t35 -61l326 -444l319 434q24 33 35.5 60.5t11.5 50.5q0 44 -40 68t-113 24
h-17v73h539v-73q-64 -9 -113.5 -42.5t-126.5 -137.5z" />
    <glyph glyph-name="Z" unicode="Z" horiz-adv-x="1436" 
d="M1300 0h-1228v82l915 1276h-412q-192 0 -269.5 -52.5t-106.5 -191.5h-74l20 356h1145v-67l-932 -1288h494q200 0 290 65.5t148 243.5h72z" />
    <glyph glyph-name="bracketleft" unicode="[" horiz-adv-x="815" 
d="M303 1470h469v-75h-110q-103 0 -134.5 -34.5t-31.5 -150.5v-1411q0 -115 31.5 -149.5t134.5 -34.5h110v-76h-469v1931z" />
    <glyph glyph-name="backslash" unicode="\" horiz-adv-x="569" 
d="M-59 1507h104l535 -1697h-105z" />
    <glyph glyph-name="bracketright" unicode="]" horiz-adv-x="815" 
d="M512 -461h-467v76h109q102 0 133.5 34.5t31.5 149.5v1409q0 116 -31.5 150.5t-133.5 34.5h-109v75h467v-1929z" />
    <glyph glyph-name="asciicircum" unicode="^" horiz-adv-x="2048" 
d="M934 1462h178l520 -565h-92l-518 436l-520 -436h-90z" />
    <glyph glyph-name="underscore" unicode="_" 
d="M0 -365h1024v-118h-1024v118z" />
    <glyph glyph-name="grave" unicode="`" 
d="M688 1188h-74l-301 182q-49 31 -66.5 52.5t-17.5 47.5q0 32 22.5 55t53.5 23q24 0 52 -16t55 -45z" />
    <glyph glyph-name="a" unicode="a" horiz-adv-x="1143" 
d="M733 559q-221 -32 -328.5 -101.5t-107.5 -178.5q0 -70 46 -118t112 -48q75 0 143 41t135 129v276zM737 159q-88 -96 -174.5 -142t-179.5 -46q-128 0 -209.5 78.5t-81.5 202.5q0 166 150.5 259.5t490.5 135.5v115q0 102 -51.5 153.5t-155.5 51.5q-82 0 -126 -30.5
t-44 -88.5q0 -7 1 -21.5t1 -21.5q0 -50 -30 -78.5t-84 -28.5q-52 0 -81.5 30t-29.5 83q0 104 119.5 181t292.5 77q99 0 181.5 -28t137.5 -80q42 -38 59 -89t17 -153v-430q0 -119 13.5 -153t47.5 -34q21 0 44 10t47 29l38 -53q-52 -59 -109 -87t-124 -28q-72 0 -113.5 49
t-46.5 137z" />
    <glyph glyph-name="b" unicode="b" horiz-adv-x="1237" 
d="M170 1239q0 85 -31 117.5t-119 50.5v63q111 18 197 35.5t158 36.5v-510q0 -21 -2.5 -54.5t-7.5 -88.5q77 97 158 141.5t182 44.5q85 0 169.5 -44t147.5 -122q62 -76 94.5 -174.5t32.5 -212.5q0 -236 -140.5 -394.5t-346.5 -158.5q-83 0 -158.5 28t-151.5 87l-116 -98
l-72 1q3 47 4.5 76t1.5 41v1135zM375 748v-404q0 -122 67.5 -196t178.5 -74q140 0 219.5 123t79.5 344q0 180 -74.5 287.5t-196.5 107.5q-74 0 -140 -45t-134 -143z" />
    <glyph glyph-name="c" unicode="c" horiz-adv-x="1063" 
d="M942 283l84 -54q-81 -135 -186 -200.5t-240 -65.5q-222 0 -371 158t-149 395q0 106 35.5 201t105.5 176q77 89 187 138.5t231 49.5q151 0 261 -78.5t110 -179.5q0 -53 -35 -88t-88 -35q-48 0 -79.5 30.5t-31.5 76.5q0 18 6 46t6 38q0 32 -46 61t-105 29
q-137 0 -228.5 -123t-91.5 -313q0 -204 89.5 -324.5t238.5 -120.5q85 0 159.5 45.5t137.5 137.5z" />
    <glyph glyph-name="d" unicode="d" horiz-adv-x="1249" 
d="M860 313v480q-50 86 -110.5 129t-133.5 43q-131 0 -215 -116t-84 -302q0 -194 81.5 -311t213.5 -117q76 0 132.5 44t115.5 150zM860 1239q0 88 -33.5 120.5t-132.5 47.5v63q103 14 194.5 31.5t176.5 40.5v-1261q0 -85 30 -121.5t105 -48.5v-62q-88 -15 -169.5 -33.5
t-158.5 -40.5v179q-75 -96 -157 -140.5t-185 -44.5q-85 0 -169 43.5t-146 120.5t-94.5 175.5t-32.5 211.5q0 236 141 394.5t346 158.5q82 0 151 -24.5t134 -75.5v266z" />
    <glyph glyph-name="e" unicode="e" horiz-adv-x="1108" 
d="M948 297l86 -51q-74 -145 -174.5 -210t-251.5 -65q-238 0 -381 150t-143 399q0 243 141 400t359 157q207 0 326.5 -143t119.5 -393v-6h-717v-39q0 -189 83 -291.5t237 -102.5q90 0 164.5 46t150.5 149zM322 647h489q-6 154 -68 239t-168 85q-99 0 -168 -87.5t-85 -236.5z
" />
    <glyph glyph-name="f" unicode="f" horiz-adv-x="750" 
d="M63 0v66q94 5 128 37.5t34 121.5v715h-180v102h180v39q0 218 91.5 339.5t252.5 121.5q98 0 164 -48t66 -118q0 -54 -30 -87.5t-77 -33.5q-49 0 -77.5 27.5t-28.5 75.5q0 5 1 23t1 30q0 16 -17.5 28.5t-42.5 12.5q-50 0 -78 -48t-28 -136q0 -59 1.5 -115.5t4.5 -109.5
l303 -1v-102h-303v-719q0 -84 43.5 -119t148.5 -36l1 -66h-558z" />
    <glyph glyph-name="g" unicode="g" horiz-adv-x="1204" 
d="M426 395q-68 -41 -100.5 -73.5t-32.5 -59.5q0 -40 49 -57t182 -17l199 2h10q204 0 297.5 -66t93.5 -208q0 -176 -174 -293t-442 -117q-207 0 -335 78.5t-128 202.5q0 80 64.5 143t185.5 101q-83 10 -129.5 52t-46.5 105q0 62 43 119t143 125q-97 47 -148 121.5t-51 169.5
q0 153 126 255.5t315 102.5q66 0 125.5 -14t115.5 -43q48 68 105 101.5t123 33.5q78 0 129 -44t51 -111q0 -52 -30 -82.5t-81 -30.5q-43 0 -69.5 27t-26.5 71q0 20 11.5 41.5t11.5 26.5q0 9 -5 12.5t-16 3.5q-33 0 -64.5 -21t-76.5 -75q64 -57 94.5 -117.5t30.5 -132.5
q0 -148 -119 -246t-299 -98q-27 0 -59.5 3t-71.5 9zM328 735q0 -115 56 -182.5t153 -67.5q96 0 153.5 67t57.5 179q0 114 -58 183t-153 69q-90 0 -149.5 -70t-59.5 -178zM442 -6q-98 -22 -148 -69t-50 -118q0 -90 82 -142t227 -52q178 0 288.5 71.5t110.5 182.5
q0 70 -56 100.5t-189 30.5h-17z" />
    <glyph glyph-name="h" unicode="h" horiz-adv-x="1280" 
d="M416 221q0 -88 32 -119.5t117 -35.5v-66h-504v66q86 4 118 35.5t32 119.5v1018q0 85 -31 117.5t-119 50.5v63q111 18 197 35.5t158 36.5v-678l43 47q72 82 150 122t165 40q155 0 237.5 -96.5t82.5 -278.5v-477q0 -88 31.5 -119.5t117.5 -35.5v-66h-504v66q86 4 118 35.5
t32 119.5v465q0 108 -49.5 165.5t-141.5 57.5q-78 0 -148 -46.5t-134 -141.5v-500z" />
    <glyph glyph-name="i" unicode="i" horiz-adv-x="627" 
d="M188 1403q0 55 38 93t93 38t92.5 -38t37.5 -93q0 -54 -38 -92.5t-92 -38.5q-55 0 -93 38t-38 93zM428 221q0 -91 34.5 -122.5t126.5 -32.5l1 -66h-524v66q91 3 124 34t33 121v545q0 89 -32.5 119.5t-124.5 34.5v63q89 14 180.5 36.5t181.5 53.5v-852z" />
    <glyph glyph-name="j" unicode="j" horiz-adv-x="627" 
d="M432 -186q0 -153 -81.5 -232.5t-237.5 -79.5q-122 0 -192.5 53t-70.5 144q0 48 32.5 80.5t82.5 32.5q46 0 74.5 -26.5t28.5 -68.5q0 -18 -9.5 -43.5t-9.5 -31.5q0 -19 20.5 -32t51.5 -13q56 0 81 37.5t25 123.5v1008q0 89 -32.5 119.5t-124.5 34.5v63q90 14 181 36.5
t181 53.5v-1259zM193 1403q0 55 37.5 93t93.5 38q55 0 93 -38t38 -93q0 -54 -39 -92.5t-92 -38.5q-56 0 -93.5 38t-37.5 93z" />
    <glyph glyph-name="k" unicode="k" horiz-adv-x="1266" 
d="M61 0v66q86 4 118 35.5t32 119.5v1032q0 88 -31.5 119t-118.5 35v66q108 20 193.5 36.5t161.5 32.5v-1018l315 283q35 31 47.5 51.5t12.5 42.5q0 32 -32.5 51t-90.5 21v69h540v-69q-78 -10 -144.5 -42.5t-143.5 -101.5l-179 -159l346 -467q56 -75 96 -101.5t97 -35.5v-66
h-541v66q61 6 87 20t26 41q0 23 -9 45.5t-32 52.5l-221 307l-174 -153v-158q0 -88 32 -119.5t117 -35.5v-66h-504z" />
    <glyph glyph-name="l" unicode="l" horiz-adv-x="627" 
d="M215 1253q0 88 -31.5 119t-117.5 35v66q33 6 154.5 29.5t197.5 39.5v-1321q0 -90 35 -122t128 -33l1 -66h-525l1 66q91 3 124 34t33 121v1032z" />
    <glyph glyph-name="m" unicode="m" horiz-adv-x="1901" 
d="M412 850l51 61q65 81 139.5 121.5t157.5 40.5q105 0 179.5 -58t104.5 -163q85 113 172 167t183 54q150 0 230.5 -96.5t80.5 -278.5v-477q0 -88 32 -119.5t118 -35.5v-66h-504v66q86 4 117.5 35.5t31.5 119.5v465q0 110 -46.5 166.5t-137.5 56.5q-72 0 -139.5 -52
t-122.5 -150v-486q0 -87 32.5 -119t118.5 -36v-66h-503v66q85 4 117 35.5t32 119.5v465q0 111 -45 167t-135 56q-66 0 -130.5 -48t-121.5 -140v-500q0 -87 32.5 -119t118.5 -36v-66h-503v66q85 4 117 35.5t32 119.5v545q0 87 -31.5 118t-117.5 36v63q98 16 184.5 38.5
t165.5 51.5z" />
    <glyph glyph-name="n" unicode="n" horiz-adv-x="1284" 
d="M424 221q0 -87 32.5 -119t118.5 -36v-66h-503v66q85 4 117 35.5t32 119.5v545q0 87 -31.5 118t-117.5 36v63q95 16 181.5 38.5t168.5 51.5l-8 -223l55 61q70 81 148.5 121.5t164.5 40.5q155 0 237.5 -96.5t82.5 -278.5v-477q0 -87 32.5 -119t118.5 -36v-66h-503v66
q85 4 117 35.5t32 119.5v465q0 108 -49.5 165.5t-140.5 57.5q-79 0 -150 -47t-135 -141v-500z" />
    <glyph glyph-name="o" unicode="o" horiz-adv-x="1204" 
d="M313 520q0 -213 77.5 -335t211.5 -122q133 0 211 123t78 334q0 214 -78.5 337.5t-210.5 123.5t-210.5 -123.5t-78.5 -337.5zM80 522q0 86 23.5 166t70.5 154q72 111 183.5 172t244.5 61q222 0 372 -158.5t150 -394.5t-150 -395.5t-372 -159.5q-221 0 -371.5 159.5
t-150.5 395.5z" />
    <glyph glyph-name="p" unicode="p" horiz-adv-x="1249" 
d="M385 748v-404q0 -122 67.5 -196t178.5 -74q141 0 221 123.5t80 343.5q0 179 -75 287t-198 108q-74 0 -140 -45t-134 -143zM377 889q77 97 158 141.5t182 44.5q85 0 168.5 -44t146.5 -122q63 -76 95 -174.5t32 -212.5q0 -236 -141 -394.5t-346 -158.5q-73 0 -143.5 23.5
t-143.5 70.5v-307q0 -87 31.5 -118t118.5 -35v-68h-502v68q86 4 117.5 35t31.5 118v1010q0 87 -31.5 118t-117.5 36v63q98 16 185 38.5t165 51.5z" />
    <glyph glyph-name="q" unicode="q" horiz-adv-x="1235" 
d="M864 317v482q-46 83 -105 124.5t-132 41.5q-136 0 -225 -126.5t-89 -324.5q0 -183 78.5 -291t208.5 -108q79 0 145 50.5t119 151.5zM1067 -244q0 -87 31.5 -118t118.5 -35v-68h-527v68q101 0 137.5 31.5t36.5 121.5v256q0 29 2 65t6 77q-75 -97 -154 -139t-188 -42
q-184 0 -312 157t-128 392q0 237 145.5 394t360.5 157q88 0 160.5 -27t138.5 -83l145 116l50 -24q-12 -92 -17.5 -153t-5.5 -101v-1045z" />
    <glyph glyph-name="r" unicode="r" horiz-adv-x="895" 
d="M412 815q72 131 155 195.5t178 64.5q70 0 114 -42.5t44 -108.5q0 -57 -32 -90t-87 -33q-36 0 -57 13t-29 41q-3 9 -5 30q-6 49 -31 49q-59 0 -127 -76.5t-111 -198.5v-438q0 -90 36.5 -122.5t133.5 -32.5v-66h-522v66q85 4 117 35.5t32 119.5v545q0 87 -31.5 118
t-117.5 36v63q98 16 184.5 38.5t165.5 51.5z" />
    <glyph glyph-name="s" unicode="s" horiz-adv-x="981" 
d="M96 -23v379h66q41 -141 130 -211.5t224 -70.5q84 0 137.5 45.5t53.5 116.5q0 59 -37 97t-170 89l-135 51q-132 50 -195.5 124.5t-63.5 178.5q0 130 98 214.5t251 84.5q70 0 156.5 -29.5t105.5 -29.5q17 0 30 12.5t21 38.5h63v-322h-69q-34 115 -110.5 175.5t-186.5 60.5
q-85 0 -137 -39t-52 -102q0 -59 39.5 -97.5t196.5 -97.5l154 -59q104 -40 162.5 -118t58.5 -179q0 -140 -97.5 -229t-252.5 -89q-99 0 -197 38t-104 38q-24 0 -41.5 -18t-28.5 -52h-70z" />
    <glyph glyph-name="t" unicode="t" horiz-adv-x="717" 
d="M176 940h-164v70q119 38 189.5 127t99.5 237h80v-332h293v-102h-293v-696q0 -85 24.5 -120.5t79.5 -35.5q29 0 63 13.5t75 41.5l43 -61q-51 -57 -113 -85t-137 -28q-123 0 -181.5 66.5t-58.5 208.5v696z" />
    <glyph glyph-name="u" unicode="u" horiz-adv-x="1262" 
d="M858 768q0 86 -32 117.5t-119 36.5v63q97 17 185 39t169 51v-799q0 -87 31.5 -118t117.5 -35v-64q-99 -16 -187 -38.5t-165 -51.5l10 221l-55 -61q-70 -81 -148.5 -121.5t-164.5 -40.5q-155 0 -238.5 98t-83.5 279v424q0 87 -31.5 118t-117.5 36v63q97 17 185.5 39
t168.5 51v-719q0 -108 49.5 -166.5t140.5 -58.5q78 0 149 47.5t136 143.5v446z" />
    <glyph glyph-name="v" unicode="v" horiz-adv-x="1104" 
d="M510 -18l-373 833q-32 74 -74 114t-96 48v65h506v-65q-72 -17 -100.5 -39t-28.5 -61q0 -12 4.5 -27.5t16.5 -42.5l153 -358q24 -55 42.5 -106t33.5 -99q12 31 32 84q32 86 42 106l147 340q10 24 15.5 47t5.5 45q0 49 -32 73.5t-114 37.5v65h434v-65q-58 -13 -94 -46
t-86 -145l-362 -804h-72z" />
    <glyph glyph-name="w" unicode="w" horiz-adv-x="1698" 
d="M481 -12l-325 800q-40 99 -75.5 136.5t-92.5 52.5v65h458v-65q-61 -7 -86.5 -23.5t-25.5 -50.5q0 -18 5.5 -40t16.5 -50l140 -349q9 -22 28.5 -75.5t42.5 -120.5q17 57 60 160q10 22 14 33l145 336l-14 34q-27 71 -74 107.5t-112 38.5v65h504v-65q-61 -5 -91 -26t-30 -58
q0 -21 5.5 -44t20.5 -58l152 -373q13 -34 26 -71t27 -79q10 33 23 68.5t34 87.5l146 346q14 35 21.5 64t7.5 53q0 39 -32.5 61.5t-99.5 28.5v65h410v-65q-51 -2 -85 -35t-81 -137l-358 -817h-76l-229 563q-11 26 -20.5 52t-16.5 52q-11 -30 -23 -59.5t-24 -54.5l-244 -553
h-72z" />
    <glyph glyph-name="x" unicode="x" horiz-adv-x="1237" 
d="M16 0l1 66q43 9 82 30.5t69 53.5l342 364l-281 334q-58 70 -98.5 95.5t-95.5 33.5v65h538v-65q-54 -6 -85 -21t-31 -34q0 -11 12.5 -31.5t38.5 -52.5l145 -179l138 165q5 6 16 19q45 55 45 79q0 20 -28 33.5t-89 21.5v65h449v-65q-59 -7 -110.5 -37.5t-110.5 -95.5
l-246 -262l358 -430q33 -38 65.5 -57.5t78.5 -28.5v-66h-537v66q66 7 97.5 20t31.5 33q0 14 -14 38t-52 70l-163 207l-199 -221q-24 -27 -38.5 -53t-14.5 -41q0 -20 31.5 -32.5t105.5 -20.5v-66h-451z" />
    <glyph glyph-name="y" unicode="y" horiz-adv-x="1143" 
d="M526 10l-401 844q-27 58 -60 85t-85 38v65h493v-65q-65 -13 -94 -32t-29 -48q0 -37 32 -108q4 -8 5 -11l174 -375q24 -52 39 -89t29 -74q12 39 28.5 83t36.5 91l148 358q12 28 18 53t6 47q0 44 -27.5 66t-113.5 39v65h424v-65q-102 -16 -160 -155q-4 -9 -6 -13l-381 -899
l-4 -10q-167 -392 -365 -392q-105 0 -165 50.5t-60 138.5q0 57 32.5 94t82.5 37q44 0 72 -28t28 -72q0 -17 -4 -41.5t-4 -32.5q1 -23 10 -32t31 -9q53 0 101 50t87 147z" />
    <glyph glyph-name="z" unicode="z" horiz-adv-x="1090" 
d="M39 0v61l674 881h-277q-136 0 -192 -41.5t-72 -150.5h-72v292h887v-71l-668 -869h316q146 0 210.5 47.5t100.5 172.5h72l-33 -322h-946z" />
    <glyph glyph-name="braceleft" unicode="{" 
d="M846 1516l-1 -52q-141 -1 -193 -54.5t-52 -209.5v-143q0 -226 -61 -308.5t-226 -113.5q165 -31 226 -113.5t61 -308.5v-143q0 -156 51.5 -208.5t193.5 -54.5l1 -51h-10q-217 0 -298 73.5t-81 272.5v213q0 158 -59 218t-222 73v60q165 15 223 74t58 216v213
q0 200 81 273.5t298 73.5h10z" />
    <glyph glyph-name="bar" unicode="|" 
d="M449 1565h126v-2048h-126v2048z" />
    <glyph glyph-name="braceright" unicode="}" 
d="M178 1516h10q216 0 297.5 -74t81.5 -273v-213q0 -157 58 -216t223 -74v-60q-163 -13 -222 -73t-59 -218v-213q0 -198 -81.5 -272t-297.5 -74h-10l1 51q142 2 193.5 54.5t51.5 208.5v143q0 226 61 308.5t226 113.5q-165 31 -226 113.5t-61 308.5v143q0 156 -52 209.5
t-193 54.5z" />
    <glyph glyph-name="asciitilde" unicode="~" horiz-adv-x="1706" 
d="M1530 758v-131q-101 -72 -197.5 -108t-189.5 -36q-43 0 -90.5 9t-100.5 26q-30 10 -87 31q-202 72 -302 72q-83 0 -173.5 -37.5t-211.5 -122.5v133q105 73 202 109t185 36q56 0 116.5 -12.5t174.5 -52.5q12 -4 35 -13q164 -59 254 -59q85 0 176 36.5t209 119.5z" />
    <glyph glyph-name="Adieresis" unicode="&#xc4;" horiz-adv-x="1540" 
d="M455 604h503l-241 570zM-39 0v76q69 9 114 48.5t87 129.5l567 1216h90l545 -1208q44 -99 97.5 -140t137.5 -46v-76h-649l1 76q94 5 134.5 29.5t40.5 74.5q0 25 -6.5 53.5t-19.5 57.5l-86 192h-611l-81 -190q-13 -30 -19 -55t-6 -48q0 -48 34.5 -72.5t135.5 -41.5v-76
h-506zM848 1782q0 45 33.5 78.5t78.5 33.5q46 0 79.5 -33t33.5 -79q0 -50 -32 -81.5t-81 -31.5q-48 0 -80 32t-32 81zM483 1782q0 44 34.5 78t80.5 34t78 -33t32 -79q0 -50 -30.5 -81.5t-79.5 -31.5q-50 0 -82.5 32t-32.5 81z" />
    <glyph glyph-name="Aring" unicode="&#xc5;" horiz-adv-x="1540" 
d="M469 604h483l-235 520zM-39 0v76q67 8 112 45t89 125l567 1163h90l545 -1155q44 -94 96.5 -133t138.5 -45v-76h-649l1 76q93 5 134 28.5t41 71.5q0 23 -6.5 49t-19.5 56l-90 202h-598l-90 -200q-13 -30 -19 -53.5t-6 -43.5q0 -46 34 -69.5t136 -40.5v-76h-506zM633 1724
q0 -59 40.5 -100t100.5 -41t100.5 41t40.5 100q0 60 -41 102t-100 42t-100 -41.5t-41 -102.5zM526 1724q0 105 72 176.5t176 71.5q105 0 176.5 -71.5t71.5 -176.5q0 -104 -71.5 -175.5t-176.5 -71.5q-104 0 -176 71.5t-72 175.5z" />
    <glyph glyph-name="Ccedilla" unicode="&#xc7;" horiz-adv-x="1518" 
d="M1376 381l82 -57q-100 -180 -252 -269.5t-358 -89.5q-144 0 -268 44.5t-224 131.5q-128 112 -192 253.5t-64 316.5q0 143 43.5 272.5t128.5 239.5q107 137 252.5 210.5t309.5 73.5q123 0 251 -43t136 -43q27 0 51.5 19t42.5 53h69l17 -457h-78q-55 180 -169.5 274.5
t-279.5 94.5q-234 0 -378 -182.5t-144 -485.5q0 -290 149 -466.5t392 -176.5q142 0 260.5 70t222.5 217zM571 -379l39 90q60 -38 119.5 -58t112.5 -20q56 0 83 22t27 69q0 42 -27 64t-81 22q-14 0 -29.5 -2t-31.5 -4l-1 196h66v-115q11 2 23.5 3t37.5 1q88 0 137.5 -43.5
t49.5 -121.5q0 -84 -59.5 -131.5t-166.5 -47.5q-59 0 -132 19t-167 57z" />
    <glyph glyph-name="Eacute" unicode="&#xc9;" horiz-adv-x="1421" 
d="M74 0v76q100 3 141 39.5t41 122.5v997q0 86 -41.5 122.5t-140.5 39.5v73h1198v-325h-80q-16 121 -75.5 168t-207.5 47h-426v-535h230q107 0 150.5 42.5t54.5 156.5h75v-514h-75q-11 117 -53 161t-142 44h-240v-432q0 -110 35.5 -143.5t145.5 -33.5h305q124 0 198 61
t117 198h78l-66 -365h-1222zM535 1620l276 299q27 29 55 45t52 16q31 0 53.5 -23t22.5 -55q0 -26 -17.5 -47.5t-66.5 -52.5l-301 -182h-74z" />
    <glyph glyph-name="Ntilde" unicode="&#xd1;" horiz-adv-x="1706" 
d="M387 248q0 -90 42.5 -131t135.5 -41h15v-76h-506v76h6q91 0 133.5 41t42.5 131v1065q-30 38 -75 58.5t-107 25.5v73h391l874 -1079v830q0 92 -46.5 134t-147.5 42v73h508v-73q-95 -2 -139 -44.5t-44 -131.5v-1244h-81l-1002 1237v-966zM1137 1937q-22 -112 -71.5 -170.5
t-123.5 -58.5q-12 0 -24.5 1.5t-26.5 4.5l-107 27q-2 0 -9 2q-35 8 -44 8q-42 0 -65 -21t-37 -71h-58q24 117 72 174t125 57q16 0 32.5 -2t30.5 -6l110 -27q12 -3 24 -4.5t26 -1.5q34 0 56 22t32 66h58z" />
    <glyph glyph-name="Odieresis" unicode="&#xd6;" horiz-adv-x="1659" 
d="M829 63q220 0 350 180.5t130 491.5t-130 491.5t-350 180.5q-219 0 -348 -180.5t-129 -491.5t129 -491.5t348 -180.5zM829 -39q-147 0 -279 54.5t-231 156.5q-105 107 -162 253t-57 310t56.5 309t162.5 252q102 104 233.5 158.5t276.5 54.5q146 0 277.5 -54.5
t232.5 -158.5q107 -108 164.5 -253t57.5 -308t-57.5 -309t-164.5 -254q-99 -102 -230.5 -156.5t-279.5 -54.5zM899 1782q0 45 33.5 78.5t78.5 33.5q46 0 79.5 -33t33.5 -79q0 -50 -32 -81.5t-81 -31.5q-48 0 -80 32t-32 81zM534 1782q0 44 34.5 78t80.5 34t78 -33t32 -79
q0 -50 -30.5 -81.5t-79.5 -31.5q-50 0 -82.5 32t-32.5 81z" />
    <glyph glyph-name="Udieresis" unicode="&#xdc;" horiz-adv-x="1659" 
d="M1305 1221q0 92 -45 134t-142 42h-6v73h500v-73q-95 -2 -138.5 -44.5t-43.5 -131.5v-658q0 -306 -145.5 -454t-444.5 -148q-301 0 -449.5 134t-148.5 403v737q0 86 -41 122t-142 40v73h598v-73q-106 -2 -150 -38.5t-44 -123.5v-715q0 -218 100.5 -324t306.5 -106
q225 0 330 113.5t105 357.5v660zM928 1782q0 45 33.5 78.5t78.5 33.5q46 0 79.5 -33t33.5 -79q0 -50 -32 -81.5t-81 -31.5q-48 0 -80 32t-32 81zM563 1782q0 44 34.5 78t80.5 34t78 -33t32 -79q0 -50 -30.5 -81.5t-79.5 -31.5q-50 0 -82.5 32t-32.5 81z" />
    <glyph glyph-name="aacute" unicode="&#xe1;" horiz-adv-x="1143" 
d="M733 559q-221 -32 -328.5 -101.5t-107.5 -178.5q0 -70 46 -118t112 -48q75 0 143 41t135 129v276zM737 159q-88 -96 -174.5 -142t-179.5 -46q-128 0 -209.5 78.5t-81.5 202.5q0 166 150.5 259.5t490.5 135.5v115q0 102 -51.5 153.5t-155.5 51.5q-82 0 -126 -30.5
t-44 -88.5q0 -7 1 -21.5t1 -21.5q0 -50 -30 -78.5t-84 -28.5q-52 0 -81.5 30t-29.5 83q0 104 119.5 181t292.5 77q99 0 181.5 -28t137.5 -80q42 -38 59 -89t17 -153v-430q0 -119 13.5 -153t47.5 -34q21 0 44 10t47 29l38 -53q-52 -59 -109 -87t-124 -28q-72 0 -113.5 49
t-46.5 137zM375 1188l276 299q27 29 55 45t52 16q31 0 53.5 -23t22.5 -55q0 -26 -17.5 -47.5t-66.5 -52.5l-301 -182h-74z" />
    <glyph glyph-name="agrave" unicode="&#xe0;" horiz-adv-x="1143" 
d="M733 559q-221 -32 -328.5 -101.5t-107.5 -178.5q0 -70 46 -118t112 -48q75 0 143 41t135 129v276zM737 159q-88 -96 -174.5 -142t-179.5 -46q-128 0 -209.5 78.5t-81.5 202.5q0 166 150.5 259.5t490.5 135.5v115q0 102 -51.5 153.5t-155.5 51.5q-82 0 -126 -30.5
t-44 -88.5q0 -7 1 -21.5t1 -21.5q0 -50 -30 -78.5t-84 -28.5q-52 0 -81.5 30t-29.5 83q0 104 119.5 181t292.5 77q99 0 181.5 -28t137.5 -80q42 -38 59 -89t17 -153v-430q0 -119 13.5 -153t47.5 -34q21 0 44 10t47 29l38 -53q-52 -59 -109 -87t-124 -28q-72 0 -113.5 49
t-46.5 137zM727 1188h-74l-301 182q-49 31 -66.5 52.5t-17.5 47.5q0 32 22.5 55t53.5 23q24 0 52 -16t55 -45z" />
    <glyph glyph-name="acircumflex" unicode="&#xe2;" horiz-adv-x="1143" 
d="M733 559q-221 -32 -328.5 -101.5t-107.5 -178.5q0 -70 46 -118t112 -48q75 0 143 41t135 129v276zM737 159q-88 -96 -174.5 -142t-179.5 -46q-128 0 -209.5 78.5t-81.5 202.5q0 166 150.5 259.5t490.5 135.5v115q0 102 -51.5 153.5t-155.5 51.5q-82 0 -126 -30.5
t-44 -88.5q0 -7 1 -21.5t1 -21.5q0 -50 -30 -78.5t-84 -28.5q-52 0 -81.5 30t-29.5 83q0 104 119.5 181t292.5 77q99 0 181.5 -28t137.5 -80q42 -38 59 -89t17 -153v-430q0 -119 13.5 -153t47.5 -34q21 0 44 10t47 29l38 -53q-52 -59 -109 -87t-124 -28q-72 0 -113.5 49
t-46.5 137zM256 1188l227 348h134l229 -348h-74l-221 194l-221 -194h-74z" />
    <glyph glyph-name="adieresis" unicode="&#xe4;" horiz-adv-x="1143" 
d="M733 559q-221 -32 -328.5 -101.5t-107.5 -178.5q0 -70 46 -118t112 -48q75 0 143 41t135 129v276zM737 159q-88 -96 -174.5 -142t-179.5 -46q-128 0 -209.5 78.5t-81.5 202.5q0 166 150.5 259.5t490.5 135.5v115q0 102 -51.5 153.5t-155.5 51.5q-82 0 -126 -30.5
t-44 -88.5q0 -7 1 -21.5t1 -21.5q0 -50 -30 -78.5t-84 -28.5q-52 0 -81.5 30t-29.5 83q0 104 119.5 181t292.5 77q99 0 181.5 -28t137.5 -80q42 -38 59 -89t17 -153v-430q0 -119 13.5 -153t47.5 -34q21 0 44 10t47 29l38 -53q-52 -59 -109 -87t-124 -28q-72 0 -113.5 49
t-46.5 137zM621 1350q0 45 33.5 78.5t78.5 33.5q46 0 79.5 -33t33.5 -79q0 -50 -32 -81.5t-81 -31.5q-48 0 -80 32t-32 81zM256 1350q0 44 34.5 78t80.5 34t78 -33t32 -79q0 -50 -30.5 -81.5t-79.5 -31.5q-50 0 -82.5 32t-32.5 81z" />
    <glyph glyph-name="atilde" unicode="&#xe3;" horiz-adv-x="1143" 
d="M733 559q-221 -32 -328.5 -101.5t-107.5 -178.5q0 -70 46 -118t112 -48q75 0 143 41t135 129v276zM737 159q-88 -96 -174.5 -142t-179.5 -46q-128 0 -209.5 78.5t-81.5 202.5q0 166 150.5 259.5t490.5 135.5v115q0 102 -51.5 153.5t-155.5 51.5q-82 0 -126 -30.5
t-44 -88.5q0 -7 1 -21.5t1 -21.5q0 -50 -30 -78.5t-84 -28.5q-52 0 -81.5 30t-29.5 83q0 104 119.5 181t292.5 77q99 0 181.5 -28t137.5 -80q42 -38 59 -89t17 -153v-430q0 -119 13.5 -153t47.5 -34q21 0 44 10t47 29l38 -53q-52 -59 -109 -87t-124 -28q-72 0 -113.5 49
t-46.5 137zM834 1505q-22 -112 -71.5 -170.5t-123.5 -58.5q-12 0 -24.5 1.5t-26.5 4.5l-107 27q-2 0 -9 2q-35 8 -44 8q-42 0 -65 -21t-37 -71h-58q24 117 72 174t125 57q16 0 32.5 -2t30.5 -6l110 -27q12 -3 24 -4.5t26 -1.5q34 0 56 22t32 66h58z" />
    <glyph glyph-name="aring" unicode="&#xe5;" horiz-adv-x="1143" 
d="M410 1391q0 -61 40.5 -102.5t100.5 -41.5q59 0 100 41.5t41 102.5q0 59 -40.5 100t-100.5 41t-100.5 -41t-40.5 -100zM303 1391q0 104 71.5 175.5t176.5 71.5q104 0 176 -71.5t72 -175.5q0 -105 -72 -176.5t-176 -71.5q-105 0 -176.5 71.5t-71.5 176.5zM733 559
q-221 -32 -328.5 -101.5t-107.5 -178.5q0 -70 46 -118t112 -48q75 0 143 41t135 129v276zM737 159q-88 -96 -174.5 -142t-179.5 -46q-128 0 -209.5 78.5t-81.5 202.5q0 166 150.5 259.5t490.5 135.5v115q0 102 -51.5 153.5t-155.5 51.5q-82 0 -126 -30.5t-44 -88.5
q0 -7 1 -21.5t1 -21.5q0 -50 -30 -78.5t-84 -28.5q-52 0 -81.5 30t-29.5 83q0 104 119.5 181t292.5 77q99 0 181.5 -28t137.5 -80q42 -38 59 -89t17 -153v-430q0 -119 13.5 -153t47.5 -34q21 0 44 10t47 29l38 -53q-52 -59 -109 -87t-124 -28q-72 0 -113.5 49t-46.5 137z
" />
    <glyph glyph-name="ccedilla" unicode="&#xe7;" horiz-adv-x="1063" 
d="M942 283l84 -54q-81 -135 -186 -200.5t-240 -65.5q-222 0 -371 158t-149 395q0 106 35.5 201t105.5 176q77 89 187 138.5t231 49.5q151 0 261 -78.5t110 -179.5q0 -53 -35 -88t-88 -35q-48 0 -79.5 30.5t-31.5 76.5q0 18 6 46t6 38q0 32 -46 61t-105 29
q-137 0 -228.5 -123t-91.5 -313q0 -204 89.5 -324.5t238.5 -120.5q85 0 159.5 45.5t137.5 137.5zM346 -379l39 90q60 -38 119.5 -58t112.5 -20q56 0 83 22t27 69q0 42 -27 64t-81 22q-14 0 -29.5 -2t-31.5 -4l-1 196h66v-115q11 2 23.5 3t37.5 1q88 0 137.5 -43.5
t49.5 -121.5q0 -84 -59.5 -131.5t-166.5 -47.5q-59 0 -132 19t-167 57z" />
    <glyph glyph-name="eacute" unicode="&#xe9;" horiz-adv-x="1108" 
d="M948 297l86 -51q-74 -145 -174.5 -210t-251.5 -65q-238 0 -381 150t-143 399q0 243 141 400t359 157q207 0 326.5 -143t119.5 -393v-6h-717v-39q0 -189 83 -291.5t237 -102.5q90 0 164.5 46t150.5 149zM322 647h489q-6 154 -68 239t-168 85q-99 0 -168 -87.5t-85 -236.5z
M404 1188l276 299q27 29 55 45t52 16q31 0 53.5 -23t22.5 -55q0 -26 -17.5 -47.5t-66.5 -52.5l-301 -182h-74z" />
    <glyph glyph-name="egrave" unicode="&#xe8;" horiz-adv-x="1108" 
d="M948 297l86 -51q-74 -145 -174.5 -210t-251.5 -65q-238 0 -381 150t-143 399q0 243 141 400t359 157q207 0 326.5 -143t119.5 -393v-6h-717v-39q0 -189 83 -291.5t237 -102.5q90 0 164.5 46t150.5 149zM322 647h489q-6 154 -68 239t-168 85q-99 0 -168 -87.5t-85 -236.5z
M756 1188h-74l-301 182q-49 31 -66.5 52.5t-17.5 47.5q0 32 22.5 55t53.5 23q24 0 52 -16t55 -45z" />
    <glyph glyph-name="ecircumflex" unicode="&#xea;" horiz-adv-x="1108" 
d="M948 297l86 -51q-74 -145 -174.5 -210t-251.5 -65q-238 0 -381 150t-143 399q0 243 141 400t359 157q207 0 326.5 -143t119.5 -393v-6h-717v-39q0 -189 83 -291.5t237 -102.5q90 0 164.5 46t150.5 149zM322 647h489q-6 154 -68 239t-168 85q-99 0 -168 -87.5t-85 -236.5z
M285 1188l227 348h134l229 -348h-74l-221 194l-221 -194h-74z" />
    <glyph glyph-name="edieresis" unicode="&#xeb;" horiz-adv-x="1108" 
d="M948 297l86 -51q-74 -145 -174.5 -210t-251.5 -65q-238 0 -381 150t-143 399q0 243 141 400t359 157q207 0 326.5 -143t119.5 -393v-6h-717v-39q0 -189 83 -291.5t237 -102.5q90 0 164.5 46t150.5 149zM322 647h489q-6 154 -68 239t-168 85q-99 0 -168 -87.5t-85 -236.5z
M650 1350q0 45 33.5 78.5t78.5 33.5q46 0 79.5 -33t33.5 -79q0 -50 -32 -81.5t-81 -31.5q-48 0 -80 32t-32 81zM285 1350q0 44 34.5 78t80.5 34t78 -33t32 -79q0 -50 -30.5 -81.5t-79.5 -31.5q-50 0 -82.5 32t-32.5 81z" />
    <glyph glyph-name="iacute" unicode="&#xed;" horiz-adv-x="627" 
d="M428 221q0 -91 34.5 -122.5t126.5 -32.5l1 -66h-524v66q91 3 124 34t33 121v545q0 89 -32.5 119.5t-124.5 34.5v63q89 14 180.5 36.5t181.5 53.5v-852zM127 1188l276 299q27 29 55 45t52 16q31 0 53.5 -23t22.5 -55q0 -26 -17.5 -47.5t-66.5 -52.5l-301 -182h-74z" />
    <glyph glyph-name="igrave" unicode="&#xec;" horiz-adv-x="627" 
d="M428 221q0 -91 34.5 -122.5t126.5 -32.5l1 -66h-524v66q91 3 124 34t33 121v545q0 89 -32.5 119.5t-124.5 34.5v63q89 14 180.5 36.5t181.5 53.5v-852zM479 1188h-74l-301 182q-49 31 -66.5 52.5t-17.5 47.5q0 32 22.5 55t53.5 23q24 0 52 -16t55 -45z" />
    <glyph glyph-name="icircumflex" unicode="&#xee;" horiz-adv-x="627" 
d="M428 221q0 -91 34.5 -122.5t126.5 -32.5l1 -66h-524v66q91 3 124 34t33 121v545q0 89 -32.5 119.5t-124.5 34.5v63q89 14 180.5 36.5t181.5 53.5v-852zM8 1188l227 348h134l229 -348h-74l-221 194l-221 -194h-74z" />
    <glyph glyph-name="idieresis" unicode="&#xef;" horiz-adv-x="627" 
d="M428 221q0 -91 34.5 -122.5t126.5 -32.5l1 -66h-524v66q91 3 124 34t33 121v545q0 89 -32.5 119.5t-124.5 34.5v63q89 14 180.5 36.5t181.5 53.5v-852zM373 1350q0 45 33.5 78.5t78.5 33.5q46 0 79.5 -33t33.5 -79q0 -50 -32 -81.5t-81 -31.5q-48 0 -80 32t-32 81z
M8 1350q0 44 34.5 78t80.5 34t78 -33t32 -79q0 -50 -30.5 -81.5t-79.5 -31.5q-50 0 -82.5 32t-32.5 81z" />
    <glyph glyph-name="ntilde" unicode="&#xf1;" horiz-adv-x="1284" 
d="M424 221q0 -87 32.5 -119t118.5 -36v-66h-503v66q85 4 117 35.5t32 119.5v545q0 87 -31.5 118t-117.5 36v63q95 16 181.5 38.5t168.5 51.5l-8 -223l55 61q70 81 148.5 121.5t164.5 40.5q155 0 237.5 -96.5t82.5 -278.5v-477q0 -87 32.5 -119t118.5 -36v-66h-503v66
q85 4 117 35.5t32 119.5v465q0 108 -49.5 165.5t-140.5 57.5q-79 0 -150 -47t-135 -141v-500zM926 1505q-22 -112 -71.5 -170.5t-123.5 -58.5q-12 0 -24.5 1.5t-26.5 4.5l-107 27q-2 0 -9 2q-35 8 -44 8q-42 0 -65 -21t-37 -71h-58q24 117 72 174t125 57q16 0 32.5 -2
t30.5 -6l110 -27q12 -3 24 -4.5t26 -1.5q34 0 56 22t32 66h58z" />
    <glyph glyph-name="oacute" unicode="&#xf3;" horiz-adv-x="1204" 
d="M313 520q0 -213 77.5 -335t211.5 -122q133 0 211 123t78 334q0 214 -78.5 337.5t-210.5 123.5t-210.5 -123.5t-78.5 -337.5zM80 522q0 86 23.5 166t70.5 154q72 111 183.5 172t244.5 61q222 0 372 -158.5t150 -394.5t-150 -395.5t-372 -159.5q-221 0 -371.5 159.5
t-150.5 395.5zM426 1188l276 299q27 29 55 45t52 16q31 0 53.5 -23t22.5 -55q0 -26 -17.5 -47.5t-66.5 -52.5l-301 -182h-74z" />
    <glyph glyph-name="ograve" unicode="&#xf2;" horiz-adv-x="1204" 
d="M313 520q0 -213 77.5 -335t211.5 -122q133 0 211 123t78 334q0 214 -78.5 337.5t-210.5 123.5t-210.5 -123.5t-78.5 -337.5zM80 522q0 86 23.5 166t70.5 154q72 111 183.5 172t244.5 61q222 0 372 -158.5t150 -394.5t-150 -395.5t-372 -159.5q-221 0 -371.5 159.5
t-150.5 395.5zM778 1188h-74l-301 182q-49 31 -66.5 52.5t-17.5 47.5q0 32 22.5 55t53.5 23q24 0 52 -16t55 -45z" />
    <glyph glyph-name="ocircumflex" unicode="&#xf4;" horiz-adv-x="1204" 
d="M313 520q0 -213 77.5 -335t211.5 -122q133 0 211 123t78 334q0 214 -78.5 337.5t-210.5 123.5t-210.5 -123.5t-78.5 -337.5zM80 522q0 86 23.5 166t70.5 154q72 111 183.5 172t244.5 61q222 0 372 -158.5t150 -394.5t-150 -395.5t-372 -159.5q-221 0 -371.5 159.5
t-150.5 395.5zM307 1188l227 348h134l229 -348h-74l-221 194l-221 -194h-74z" />
    <glyph glyph-name="odieresis" unicode="&#xf6;" horiz-adv-x="1204" 
d="M313 520q0 -213 77.5 -335t211.5 -122q133 0 211 123t78 334q0 214 -78.5 337.5t-210.5 123.5t-210.5 -123.5t-78.5 -337.5zM80 522q0 86 23.5 166t70.5 154q72 111 183.5 172t244.5 61q222 0 372 -158.5t150 -394.5t-150 -395.5t-372 -159.5q-221 0 -371.5 159.5
t-150.5 395.5zM672 1350q0 45 33.5 78.5t78.5 33.5q46 0 79.5 -33t33.5 -79q0 -50 -32 -81.5t-81 -31.5q-48 0 -80 32t-32 81zM307 1350q0 44 34.5 78t80.5 34t78 -33t32 -79q0 -50 -30.5 -81.5t-79.5 -31.5q-50 0 -82.5 32t-32.5 81z" />
    <glyph glyph-name="otilde" unicode="&#xf5;" horiz-adv-x="1204" 
d="M313 520q0 -213 77.5 -335t211.5 -122q133 0 211 123t78 334q0 214 -78.5 337.5t-210.5 123.5t-210.5 -123.5t-78.5 -337.5zM80 522q0 86 23.5 166t70.5 154q72 111 183.5 172t244.5 61q222 0 372 -158.5t150 -394.5t-150 -395.5t-372 -159.5q-221 0 -371.5 159.5
t-150.5 395.5zM885 1505q-22 -112 -71.5 -170.5t-123.5 -58.5q-12 0 -24.5 1.5t-26.5 4.5l-107 27q-2 0 -9 2q-35 8 -44 8q-42 0 -65 -21t-37 -71h-58q24 117 72 174t125 57q16 0 32.5 -2t30.5 -6l110 -27q12 -3 24 -4.5t26 -1.5q34 0 56 22t32 66h58z" />
    <glyph glyph-name="uacute" unicode="&#xfa;" horiz-adv-x="1262" 
d="M858 768q0 86 -32 117.5t-119 36.5v63q97 17 185 39t169 51v-799q0 -87 31.5 -118t117.5 -35v-64q-99 -16 -187 -38.5t-165 -51.5l10 221l-55 -61q-70 -81 -148.5 -121.5t-164.5 -40.5q-155 0 -238.5 98t-83.5 279v424q0 87 -31.5 118t-117.5 36v63q97 17 185.5 39
t168.5 51v-719q0 -108 49.5 -166.5t140.5 -58.5q78 0 149 47.5t136 143.5v446zM438 1188l276 299q27 29 55 45t52 16q31 0 53.5 -23t22.5 -55q0 -26 -17.5 -47.5t-66.5 -52.5l-301 -182h-74z" />
    <glyph glyph-name="ugrave" unicode="&#xf9;" horiz-adv-x="1262" 
d="M858 768q0 86 -32 117.5t-119 36.5v63q97 17 185 39t169 51v-799q0 -87 31.5 -118t117.5 -35v-64q-99 -16 -187 -38.5t-165 -51.5l10 221l-55 -61q-70 -81 -148.5 -121.5t-164.5 -40.5q-155 0 -238.5 98t-83.5 279v424q0 87 -31.5 118t-117.5 36v63q97 17 185.5 39
t168.5 51v-719q0 -108 49.5 -166.5t140.5 -58.5q78 0 149 47.5t136 143.5v446zM790 1188h-74l-301 182q-49 31 -66.5 52.5t-17.5 47.5q0 32 22.5 55t53.5 23q24 0 52 -16t55 -45z" />
    <glyph glyph-name="ucircumflex" unicode="&#xfb;" horiz-adv-x="1262" 
d="M858 768q0 86 -32 117.5t-119 36.5v63q97 17 185 39t169 51v-799q0 -87 31.5 -118t117.5 -35v-64q-99 -16 -187 -38.5t-165 -51.5l10 221l-55 -61q-70 -81 -148.5 -121.5t-164.5 -40.5q-155 0 -238.5 98t-83.5 279v424q0 87 -31.5 118t-117.5 36v63q97 17 185.5 39
t168.5 51v-719q0 -108 49.5 -166.5t140.5 -58.5q78 0 149 47.5t136 143.5v446zM319 1188l227 348h134l229 -348h-74l-221 194l-221 -194h-74z" />
    <glyph glyph-name="udieresis" unicode="&#xfc;" horiz-adv-x="1262" 
d="M858 768q0 86 -32 117.5t-119 36.5v63q97 17 185 39t169 51v-799q0 -87 31.5 -118t117.5 -35v-64q-99 -16 -187 -38.5t-165 -51.5l10 221l-55 -61q-70 -81 -148.5 -121.5t-164.5 -40.5q-155 0 -238.5 98t-83.5 279v424q0 87 -31.5 118t-117.5 36v63q97 17 185.5 39
t168.5 51v-719q0 -108 49.5 -166.5t140.5 -58.5q78 0 149 47.5t136 143.5v446zM684 1350q0 45 33.5 78.5t78.5 33.5q46 0 79.5 -33t33.5 -79q0 -50 -32 -81.5t-81 -31.5q-48 0 -80 32t-32 81zM319 1350q0 44 34.5 78t80.5 34t78 -33t32 -79q0 -50 -30.5 -81.5t-79.5 -31.5
q-50 0 -82.5 32t-32.5 81z" />
    <glyph glyph-name="dagger" unicode="&#x2020;" 
d="M487 -229q0 236 -23.5 450t-72.5 414q49 75 73.5 167t24.5 201q-73 -3 -165.5 -44t-126.5 -41q-50 0 -78.5 27t-28.5 75q0 46 30 75t79 29q32 0 126 -40t164 -40v29q0 101 -43 208.5t-43 121.5q0 47 30.5 75.5t80.5 28.5q48 0 77.5 -28.5t29.5 -75.5q0 -14 -43 -121.5
t-43 -208.5v-29q70 0 164 40t126 40q49 0 79 -29t30 -75q0 -48 -28.5 -75t-78.5 -27q-34 0 -126.5 41t-165.5 44q0 -109 24.5 -201t73.5 -167q-47 -171 -70.5 -386t-23.5 -478h-52z" />
    <glyph glyph-name="degree" unicode="&#xb0;" horiz-adv-x="674" 
d="M338 1372q-84 0 -143.5 -58.5t-59.5 -142.5t59.5 -143t143.5 -59t142.5 59t58.5 143t-58.5 142.5t-142.5 58.5zM338 1454q117 0 200 -83t83 -200q0 -116 -83.5 -199t-201.5 -83t-199.5 82t-81.5 200q0 119 82.5 201t200.5 82z" />
    <glyph glyph-name="cent" unicode="&#xa2;" horiz-adv-x="1165" 
d="M473 203l328 751q-30 33 -68.5 49.5t-85.5 16.5q-134 0 -221.5 -122.5t-87.5 -313.5q0 -135 32.5 -226t102.5 -155zM543 147q32 -14 61.5 -21t59.5 -7q89 0 160.5 47t138.5 149l84 -51q-76 -136 -177 -203t-229 -67q-33 0 -72 5.5t-86 16.5l-112 -262h-90l125 291
q-142 66 -223 201.5t-81 304.5q0 105 36 199.5t106 175.5q77 88 186 138t223 50q62 0 110.5 -9.5t88.5 -29.5l98 228h90l-114 -271q52 -40 78 -83.5t26 -90.5q0 -55 -33.5 -90t-87.5 -35q-29 0 -51 12.5t-41 38.5z" />
    <glyph glyph-name="sterling" unicode="&#xa3;" horiz-adv-x="1165" 
d="M59 55q108 47 156.5 115.5t48.5 175.5q0 51 -9 131t-30 217h-157v105h147q-9 68 -13.5 124.5t-4.5 98.5q0 217 130 352t337 135q182 0 294.5 -85.5t112.5 -219.5q0 -66 -37 -107.5t-96 -41.5q-52 0 -84.5 31.5t-32.5 82.5q0 32 24.5 79t24.5 67q0 43 -51 71.5t-131 28.5
q-135 0 -207.5 -86.5t-72.5 -247.5q0 -56 6.5 -127.5t19.5 -154.5h322v-105h-307q5 -66 7.5 -107t2.5 -69q0 -109 -36 -192t-116 -160q57 27 106 41t89 14q83 0 200.5 -27.5t153.5 -27.5q80 0 121 45.5t43 136.5h82q-8 -197 -84 -287t-236 -90q-65 0 -203 32t-208 32
q-56 0 -127.5 -15t-161.5 -45z" />
    <glyph glyph-name="section" unicode="&#xa7;" 
d="M254 770q0 -53 27.5 -100t113.5 -127q80 -76 131.5 -106.5t96.5 -30.5q62 0 103.5 39t41.5 98q0 45 -28.5 92.5t-98.5 116.5q-82 80 -138.5 114.5t-103.5 34.5q-59 0 -102 -39t-43 -92zM619 352q98 -81 145 -153.5t47 -143.5q0 -110 -92.5 -181t-239.5 -71
q-129 0 -214 59.5t-85 145.5q0 57 32 92t83 35q44 0 73 -29t29 -71q0 -38 -31.5 -72.5t-31.5 -44.5q0 -29 39.5 -47t105.5 -18q81 0 130.5 41.5t49.5 107.5q0 49 -40.5 105t-145.5 147l-180 156q-90 77 -133 147t-43 137q0 113 78.5 183t207.5 73q-103 90 -145.5 157.5
t-42.5 137.5q0 115 87.5 188.5t225.5 73.5q123 0 202 -60.5t79 -152.5q0 -51 -33.5 -84.5t-83.5 -33.5q-42 0 -72 26t-30 64q0 33 32.5 70t32.5 50q0 27 -37.5 47.5t-91.5 20.5q-75 0 -118 -38t-43 -103q0 -55 36 -109t156 -157l176 -152q88 -74 131 -146t43 -145
q0 -111 -78 -179t-210 -73z" />
    <glyph glyph-name="bullet" unicode="&#x2022;" horiz-adv-x="1208" 
d="M307 762q0 123 87 209t210 86q122 0 208.5 -86.5t86.5 -208.5t-87.5 -209.5t-209.5 -87.5q-123 0 -209 87t-86 210z" />
    <glyph glyph-name="paragraph" unicode="&#xb6;" 
d="M948 1479v-78h-125v-1401h-94v1401h-182v-1401h-96v782q-173 8 -274 102.5t-101 245.5q0 157 107.5 253t285.5 96h479z" />
    <glyph glyph-name="germandbls" unicode="&#xdf;" horiz-adv-x="1214" 
d="M43 0v66q86 4 118 35.5t32 119.5v864q0 118 17.5 180t57.5 111q53 62 135 93.5t189 31.5q179 0 288 -88t109 -229q0 -103 -61.5 -173.5t-173.5 -95.5q168 -24 268 -147t100 -305q0 -202 -124 -341.5t-304 -139.5q-101 0 -162 45t-61 118q0 45 32 75t79 30q42 0 69 -22
t37 -64q2 -8 6 -26q12 -62 62 -62q66 0 104.5 102.5t38.5 282.5q0 213 -86 304t-285 91h-6v80q139 0 205 59t66 183q0 109 -55.5 172t-151.5 63q-114 0 -159.5 -76t-45.5 -293v-1042z" />
    <glyph glyph-name="registered" unicode="&#xae;" horiz-adv-x="1683" 
d="M729 719q16 -1 32 -1.5t34 -0.5q112 0 173.5 45.5t61.5 128.5q0 73 -53 117.5t-143 44.5q-52 0 -78.5 -18.5t-26.5 -53.5v-262zM469 1092h393q147 0 232.5 -54.5t85.5 -146.5q0 -76 -69.5 -124t-217.5 -75q93 -29 142 -77.5t71 -133.5q6 -22 11 -63q13 -88 59 -88
q32 0 49.5 34t17.5 99h43v-12q0 -88 -40.5 -133.5t-119.5 -45.5q-46 0 -78.5 17t-48.5 49q-18 40 -21 113.5t-9 95.5q-20 68 -70.5 100.5t-136.5 32.5h-33v-248q0 -54 26.5 -75.5t98.5 -24.5v-41h-385v41q72 2 99.5 23.5t27.5 76.5v516q0 55 -26 76t-101 25v43zM844 1303
q-122 0 -236 -48t-202 -137t-134.5 -202.5t-46.5 -237.5q0 -127 46.5 -239t136.5 -201q88 -89 198.5 -135t235.5 -46q126 0 236.5 46t197.5 135q88 90 135 203t47 237t-47.5 241.5t-132.5 200.5q-86 87 -200.5 135t-233.5 48zM844 1382q138 0 268.5 -54t228.5 -152
q97 -97 150 -228t53 -272q0 -137 -55.5 -267.5t-157.5 -232.5q-99 -99 -224.5 -150t-270.5 -51q-137 0 -263 52.5t-227 152.5t-154 227t-53 271q0 140 53 268.5t152 229.5q98 99 228 152.5t272 53.5z" />
    <glyph glyph-name="copyright" unicode="&#xa9;" horiz-adv-x="1683" 
d="M1120 1096h35l2 -314h-41q-34 137 -104 206t-176 69q-123 0 -185.5 -94.5t-62.5 -278.5q0 -189 67 -285t199 -96q86 0 156 43t127 131l34 -24q-58 -105 -143 -157t-199 -52q-167 0 -285 123t-118 297q0 186 116 312t285 126q74 0 148 -34t82 -34q27 0 42 14.5t21 47.5z
M844 1303q-123 0 -237.5 -48.5t-200.5 -136.5q-88 -89 -134.5 -202.5t-46.5 -237.5q0 -125 47 -238.5t136 -201.5q88 -89 198.5 -135t235.5 -46q126 0 236.5 46t197.5 135q88 90 135 203t47 237t-47.5 240.5t-132.5 201.5q-86 87 -200.5 135t-233.5 48zM844 1382
q137 0 266.5 -53.5t226.5 -150.5q98 -97 152.5 -228.5t54.5 -271.5t-53 -268t-154 -230q-98 -100 -225 -152.5t-270 -52.5t-269 52.5t-227 152.5t-154 227t-53 271q0 140 53 268.5t152 229.5q98 99 228 152.5t272 53.5z" />
    <glyph glyph-name="trademark" unicode="&#x2122;" horiz-adv-x="1683" 
d="M788 1438h183l141 -400l148 400h174v-25l-30 -2q-22 -2 -34 -15.5t-12 -37.5v-373q0 -24 12 -37.5t34 -15.5l30 -2v-27h-236v27l31 2q21 2 33 16t12 37v395l-178 -479h-15l-174 479v-395q0 -23 12.5 -37t34.5 -16l31 -2v-27h-197v27l34 2q21 2 32.5 16t11.5 37v371
q0 23 -12.5 37t-34.5 16l-31 2v27zM256 1438h440l11 -178h-25q-8 79 -40.5 115t-96.5 36h-21v-426q0 -23 12 -37t33 -16l31 -2v-27h-248v27l31 2q21 1 33 15.5t12 37.5v426h-20q-64 0 -97 -36t-41 -115h-26z" />
    <glyph glyph-name="acute" unicode="&#xb4;" 
d="M336 1188l276 299q27 29 55 45t52 16q31 0 53.5 -23t22.5 -55q0 -26 -17.5 -47.5t-66.5 -52.5l-301 -182h-74z" />
    <glyph glyph-name="dieresis" unicode="&#xa8;" 
d="M582 1350q0 45 33.5 78.5t78.5 33.5q46 0 79.5 -33t33.5 -79q0 -50 -32 -81.5t-81 -31.5q-48 0 -80 32t-32 81zM217 1350q0 44 34.5 78t80.5 34t78 -33t32 -79q0 -50 -30.5 -81.5t-79.5 -31.5q-50 0 -82.5 32t-32.5 81z" />
    <glyph glyph-name="notequal" unicode="&#x2260;" horiz-adv-x="1706" 
d="M1210 1180l88 -70l-196 -250h350v-115h-424l-211 -270h635v-115h-709l-251 -319l-89 70l197 249h-346v115h420l211 270h-631v115h704z" />
    <glyph glyph-name="AE" unicode="&#xc6;" horiz-adv-x="2124" 
d="M522 604h498v756h-37zM1233 283q0 -110 35 -143.5t145 -33.5h256q124 0 198 61t118 198h79l-67 -365h-1159v76q100 3 141 39.5t41 122.5v245h-569l-123 -206q-3 -5 -7 -12q-32 -54 -32 -85q0 -48 41.5 -73.5t125.5 -30.5l1 -76h-506l1 76q58 9 108 50.5t100 123.5
l598 967q15 24 22.5 46t7.5 42q0 44 -40 65.5t-136 26.5v73h1362v-325h-82q-15 116 -72 165.5t-175 49.5h-412v-535h182q107 0 150.5 42.5t54.5 156.5h76v-514h-76q-11 117 -53 161t-142 44h-192v-432z" />
    <glyph glyph-name="Oslash" unicode="&#xd8;" horiz-adv-x="1659" 
d="M506 -205h-119l100 254q-184 103 -285.5 283t-101.5 403q0 164 56.5 308t162.5 253q99 102 232 157.5t278 55.5q54 0 111 -9t115 -27l75 186h121l-94 -229q191 -102 296.5 -284t105.5 -411q0 -164 -56 -307.5t-164 -255.5q-98 -103 -229.5 -157t-284.5 -54
q-54 0 -113.5 10.5t-121.5 30.5zM539 178l475 1186q-46 21 -92 32t-91 11q-217 0 -350 -179.5t-133 -477.5q0 -194 47.5 -337t143.5 -235zM1108 1303l-475 -1190q49 -25 98 -37.5t96 -12.5q221 0 350.5 180.5t129.5 491.5q0 199 -50.5 343t-148.5 225z" />
    <glyph glyph-name="infinity" unicode="&#x221e;" horiz-adv-x="1706" 
d="M905 559q51 -95 119 -141.5t156 -46.5q102 0 168.5 71t66.5 181q0 108 -61 179.5t-152 71.5q-85 0 -153.5 -72.5t-143.5 -242.5zM803 666q-51 95 -119 142.5t-154 47.5q-105 0 -171 -71t-66 -183q0 -108 61 -179t152 -71q85 0 152 69t145 245zM866 494
q-71 -138 -148 -201.5t-173 -63.5q-134 0 -226 109t-92 272q0 172 82.5 277.5t214.5 105.5q97 0 172 -63t144 -203q67 138 146 204t175 66q134 0 226 -108.5t92 -272.5q0 -171 -82 -277t-213 -106q-96 0 -169 60t-149 201z" />
    <glyph glyph-name="plusminus" unicode="&#xb1;" horiz-adv-x="1706" 
d="M254 158h1198v-117h-1198v117zM795 1180h118v-344h539v-117h-539v-344h-118v344h-541v117h541v344z" />
    <glyph glyph-name="lessequal" unicode="&#x2264;" horiz-adv-x="1706" 
d="M262 150h1182v-117h-1182v117zM1444 1192v-125l-977 -324l977 -323v-125l-1182 399v101z" />
    <glyph glyph-name="greaterequal" unicode="&#x2265;" horiz-adv-x="1706" 
d="M262 150h1182v-117h-1182v117zM262 1192l1182 -397v-101l-1182 -399v125l979 323l-979 324v125z" />
    <glyph glyph-name="yen" unicode="&#xa5;" horiz-adv-x="1481" 
d="M1094 956h391v-75h-449l-147 -197h596v-76h-627v-370q0 -87 43.5 -123.5t150.5 -38.5l1 -76h-617l1 76q105 1 149.5 38t44.5 124v370h-629v76h584l-148 197h-436v75h379l-172 228q-4 5 -11 14q-134 175 -243 199v73h620v-73q-72 0 -111.5 -20.5t-39.5 -57.5q0 -24 12 -54
t35 -61l326 -444l319 434q24 33 35.5 60.5t11.5 50.5q0 44 -40 68t-113 24h-17v73h539v-73q-116 -16 -234 -173l-6 -7z" />
    <glyph glyph-name="mu" unicode="&#xb5;" horiz-adv-x="1120" 
d="M164 193q-27 -136 -52 -339q-34 -272 -112 -272q-37 0 -58.5 23.5t-21.5 64.5q0 40 64.5 273.5t105.5 427.5l109 514h147l-104 -492q-6 -30 -9.5 -58.5t-3.5 -53.5q0 -83 42 -129t118 -46q98 0 163.5 68.5t94.5 200.5l111 510h149l-114 -531q-13 -59 -17 -87.5t-4 -49.5
q0 -48 26 -78t66 -30q35 0 65.5 18t51.5 51t41 93.5t39 60.5q12 0 19 -10t7 -27q0 -25 -11 -66.5t-29 -83.5q-38 -82 -95 -122.5t-135 -40.5q-68 0 -108.5 51t-40.5 139v23q-46 -110 -116 -164t-165 -54q-96 0 -152.5 54.5t-70.5 161.5z" />
    <glyph glyph-name="partialdiff" unicode="&#x2202;" horiz-adv-x="1044" 
d="M754 604q13 81 19.5 161.5t6.5 158.5q0 140 -39.5 216.5t-111.5 76.5q-53 0 -117 -63.5t-109 -63.5q-29 0 -51 21.5t-22 51.5q0 59 68 105.5t163 46.5q171 0 273 -152.5t102 -412.5q0 -335 -139 -555t-344 -220q-147 0 -241.5 106.5t-94.5 272.5q0 189 108.5 316
t266.5 127q99 0 162.5 -47t99.5 -146zM709 483q0 117 -45 180.5t-127 63.5q-113 0 -184.5 -127.5t-71.5 -333.5q0 -117 44 -178t128 -61q111 0 183.5 128t72.5 328z" />
    <glyph glyph-name="summation" unicode="&#x2211;" horiz-adv-x="1434" 
d="M12 1473h1135l98 -340h-74l-67 219q-8 27 -32 39t-73 12h-741l864 -850v-37l-858 -756h893q60 0 77.5 13t29.5 51l71 229h74l-135 -446h-1260v28l959 838l-961 950v50z" />
    <glyph glyph-name="product" unicode="&#x220f;" horiz-adv-x="1595" 
d="M57 1473h1479v-70h-186v-1727h186v-69h-555v69h197v1727h-762v-1727h196v-69h-555v69h187v1727h-187v70z" />
    <glyph glyph-name="pi" unicode="&#x3c0;" horiz-adv-x="1354" 
d="M1329 885l-35 -162h-329q-34 -179 -54 -452q-23 -314 -120 -314q-38 0 -58 24.5t-20 69.5q0 58 77 280.5t117 391.5h-375q-33 -177 -53 -448q-25 -318 -123 -318q-37 0 -57 25t-20 71q0 56 77.5 277t118.5 393h-133q-136 0 -180 -43.5t-72 -171.5h-59q37 207 117.5 292
t238.5 85h942z" />
    <glyph glyph-name="integral" unicode="&#x222b;" horiz-adv-x="1020" 
d="M301 -268q103 0 116 664q3 141 5 216q12 503 102 719.5t281 216.5q76 0 122 -39t46 -104q0 -48 -31 -77.5t-82 -29.5q-53 0 -85 35t-32 92q0 8 -6 15.5t-14 7.5q-105 0 -119 -634q-3 -157 -6 -245q-10 -308 -31.5 -461t-62.5 -247q-49 -114 -123 -173t-168 -59
q-73 0 -119.5 38t-46.5 97q0 53 31.5 84t83.5 31q47 0 79.5 -29t32.5 -67q0 -24 7.5 -37.5t19.5 -13.5z" />
    <glyph glyph-name="ordfeminine" unicode="&#xaa;" horiz-adv-x="858" 
d="M551 1130q-168 -23 -248 -71t-80 -125q0 -49 34.5 -82t84.5 -33q57 0 107.5 29t101.5 90v192zM552 851q-66 -67 -130.5 -99.5t-134.5 -32.5q-96 0 -156.5 55t-60.5 141q0 117 113 182.5t368 94.5v80q0 71 -39 107t-117 36q-61 0 -94 -21t-33 -61v-30q0 -36 -22 -55
t-64 -19q-38 0 -60 20.5t-22 57.5q0 73 89.5 126.5t220.5 53.5q74 0 136 -19.5t103 -56.5q30 -26 43 -61.5t13 -106.5v-301q0 -82 10 -106.5t37 -24.5q16 0 32.5 6.5t35.5 19.5l28 -36q-39 -41 -82 -60.5t-92 -19.5q-55 0 -86.5 34t-35.5 96z" />
    <glyph glyph-name="ordmasculine" unicode="&#xba;" horiz-adv-x="903" 
d="M236 1104q0 -150 58 -235t159 -85q98 0 156.5 86t58.5 234q0 149 -58 235t-157 86q-101 0 -159 -85.5t-58 -235.5zM59 1106q0 60 18.5 116t53.5 107q54 78 138 121t184 43q165 0 278 -111.5t113 -275.5q0 -166 -112.5 -277.5t-278.5 -111.5q-167 0 -280.5 112t-113.5 277
z" />
    <glyph glyph-name="Omega" unicode="&#x3a9;" horiz-adv-x="1567" 
d="M1100 188v-26h313l66 203h61l-108 -365h-500q134 233 202 451t68 413q0 271 -107.5 416t-308.5 145t-309 -145t-108 -416q0 -195 68 -411t204 -453h-500l-110 365h61l68 -203h311v26q-165 203 -234 361.5t-69 327.5q0 272 174.5 446t443.5 174t443 -174.5t174 -445.5
q0 -169 -69 -327.5t-234 -361.5z" />
    <glyph glyph-name="ae" unicode="&#xe6;" horiz-adv-x="1741" 
d="M799 213q-101 -121 -205.5 -181.5t-212.5 -60.5q-133 0 -218 79t-85 202q0 166 157.5 259.5t512.5 135.5v115q0 105 -55.5 156t-168.5 51q-80 0 -124 -31.5t-44 -89.5v-43q0 -50 -30 -78.5t-84 -28.5q-52 0 -81.5 30t-29.5 83q0 108 122 183t308 75q101 0 186 -31
t144 -90q72 65 151 97t164 32q214 0 335.5 -142t121.5 -394v-6h-717v-39q0 -189 83 -291.5t237 -102.5q92 0 169.5 48t145.5 147l86 -51q-69 -141 -173 -208t-253 -67q-146 0 -255.5 60t-186.5 182zM954 647h490q-6 154 -68 239t-168 85q-99 0 -168 -87.5t-86 -236.5z
M748 557q-233 -29 -348 -98.5t-115 -179.5q0 -70 48.5 -118t119.5 -48q80 0 153 42.5t142 129.5v272z" />
    <glyph glyph-name="oslash" unicode="&#xf8;" horiz-adv-x="1204" 
d="M147 -246l158 309q-108 78 -166.5 197.5t-58.5 263.5q0 234 151.5 392.5t372.5 158.5q46 0 95.5 -10t103.5 -31l117 226h116l-143 -277q108 -71 170.5 -195.5t62.5 -267.5q0 -233 -149.5 -393t-366.5 -160q-49 0 -104 11t-113 32l-129 -256h-117zM377 205l373 723
q-37 27 -73 40t-75 13q-132 0 -210.5 -121.5t-78.5 -331.5q0 -104 15.5 -182.5t48.5 -140.5zM821 842l-372 -721q36 -31 72.5 -45.5t76.5 -14.5q134 0 213.5 122t79.5 331q0 101 -17.5 184t-52.5 144z" />
    <glyph glyph-name="questiondown" unicode="&#xbf;" horiz-adv-x="985" 
d="M631 1042l10 -299h-31q-146 0 -221.5 -81.5t-75.5 -239.5q0 -166 67 -262.5t181 -96.5q65 0 108.5 27t43.5 66q0 17 -21.5 54.5t-21.5 63.5q0 46 32.5 77.5t77.5 31.5q60 0 96.5 -36.5t36.5 -96.5q0 -109 -114.5 -194t-272.5 -85q-187 0 -308.5 122.5t-121.5 314.5
q0 194 112 305.5t318 122.5l29 206h76zM725 1370q0 -55 -39 -94t-94 -39t-93 38.5t-38 94.5t38 94.5t93 38.5t94 -39t39 -94z" />
    <glyph glyph-name="exclamdown" unicode="&#xa1;" horiz-adv-x="631" 
d="M182 1370q0 55 39 94t94 39q56 0 95 -39t39 -94t-39 -94t-95 -39q-55 0 -94 39t-39 94zM287 1044h55l98 -865q1 -8 1.5 -17t0.5 -25q0 -76 -33 -118t-94 -42t-95 42t-34 118q0 16 0.5 24.5t1.5 16.5z" />
    <glyph glyph-name="logicalnot" unicode="&#xac;" horiz-adv-x="1706" 
d="M254 858h1198v-502h-115v385h-1083v117z" />
    <glyph glyph-name="radical" unicode="&#x221a;" horiz-adv-x="1288" 
d="M1106 1647h182v-82h-119l-594 -1606h-53l-323 893l-119 -43l-23 68l262 92l265 -729z" />
    <glyph glyph-name="florin" unicode="&#x192;" horiz-adv-x="1165" 
d="M573 27q-25 -247 -116.5 -361.5t-263.5 -114.5q-103 0 -169.5 48.5t-66.5 119.5q0 47 31 78t78 31q41 0 67.5 -28.5t26.5 -73.5q0 -47 16.5 -71t48.5 -24q106 0 143 355l1 2l75 725h-247l10 104h248l22 213q26 249 117 363t262 114q103 0 169.5 -48.5t66.5 -121.5
q0 -47 -30 -76.5t-77 -29.5q-42 0 -69 28.5t-27 73.5q0 47 -16 69.5t-48 22.5q-106 0 -143 -353v-1l-29 -254h250l-10 -104h-248z" />
    <glyph glyph-name="approxequal" unicode="&#x2248;" horiz-adv-x="1706" 
d="M1530 584v-131q-107 -75 -202 -110.5t-187 -35.5q-98 0 -288 69.5t-290 69.5q-82 0 -169.5 -35.5t-215.5 -123.5v131q108 74 203.5 110.5t183.5 36.5q111 0 301.5 -69.5t276.5 -69.5q85 0 173.5 35.5t213.5 122.5zM1530 934v-131q-104 -73 -200 -108.5t-187 -35.5
q-100 0 -290 69t-290 69q-83 0 -171.5 -36t-213.5 -122v131q106 73 202 109t185 36q111 0 300.5 -68.5t277.5 -68.5q87 0 175 35t212 121z" />
    <glyph glyph-name="Delta" unicode="&#x2206;" horiz-adv-x="1208" 
d="M555 1212l-389 -1042h768zM596 1497h29l555 -1497h-1151z" />
    <glyph glyph-name="guillemotleft" unicode="&#xab;" horiz-adv-x="1042" 
d="M516 522l375 451h88l-234 -451l254 -450h-108zM80 522l375 451h88l-234 -451l254 -450h-108z" />
    <glyph glyph-name="guillemotright" unicode="&#xbb;" horiz-adv-x="1042" 
d="M526 522l-372 -450h-91l234 450l-254 451h111zM963 522l-375 -450h-88l233 450l-254 451h109z" />
    <glyph glyph-name="ellipsis" unicode="&#x2026;" horiz-adv-x="2048" 
d="M209 115q0 55 38 94t93 39t94 -39t39 -94q0 -56 -39 -94.5t-94 -38.5t-93 38.5t-38 94.5zM891 115q0 55 38 94t93 39t94 -39t39 -94q0 -56 -39 -94.5t-94 -38.5t-93 38.5t-38 94.5zM1575 115q0 55 38 94t93 39t94 -39t39 -94q0 -56 -39 -94.5t-94 -38.5t-93 38.5
t-38 94.5z" />
    <glyph glyph-name="nonbreakingspace" unicode="&#xa0;" horiz-adv-x="1165" 
 />
    <glyph glyph-name="Agrave" unicode="&#xc0;" horiz-adv-x="1540" 
d="M455 604h503l-241 570zM-39 0v76q69 9 114 48.5t87 129.5l567 1216h90l545 -1208q44 -99 97.5 -140t137.5 -46v-76h-649l1 76q94 5 134.5 29.5t40.5 74.5q0 25 -6.5 53.5t-19.5 57.5l-86 192h-611l-81 -190q-13 -30 -19 -55t-6 -48q0 -48 34.5 -72.5t135.5 -41.5v-76
h-506zM954 1620h-74l-301 182q-49 31 -66.5 52.5t-17.5 47.5q0 32 22.5 55t53.5 23q24 0 52 -16t55 -45z" />
    <glyph glyph-name="Atilde" unicode="&#xc3;" horiz-adv-x="1540" 
d="M455 604h503l-241 570zM-39 0v76q69 9 114 48.5t87 129.5l567 1216h90l545 -1208q44 -99 97.5 -140t137.5 -46v-76h-649l1 76q94 5 134.5 29.5t40.5 74.5q0 25 -6.5 53.5t-19.5 57.5l-86 192h-611l-81 -190q-13 -30 -19 -55t-6 -48q0 -48 34.5 -72.5t135.5 -41.5v-76
h-506zM1061 1937q-22 -112 -71.5 -170.5t-123.5 -58.5q-12 0 -24.5 1.5t-26.5 4.5l-107 27q-2 0 -9 2q-35 8 -44 8q-42 0 -65 -21t-37 -71h-58q24 117 72 174t125 57q16 0 32.5 -2t30.5 -6l110 -27q12 -3 24 -4.5t26 -1.5q34 0 56 22t32 66h58z" />
    <glyph glyph-name="Otilde" unicode="&#xd5;" horiz-adv-x="1659" 
d="M829 63q220 0 350 180.5t130 491.5t-130 491.5t-350 180.5q-219 0 -348 -180.5t-129 -491.5t129 -491.5t348 -180.5zM829 -39q-147 0 -279 54.5t-231 156.5q-105 107 -162 253t-57 310t56.5 309t162.5 252q102 104 233.5 158.5t276.5 54.5q146 0 277.5 -54.5
t232.5 -158.5q107 -108 164.5 -253t57.5 -308t-57.5 -309t-164.5 -254q-99 -102 -230.5 -156.5t-279.5 -54.5zM1112 1937q-22 -112 -71.5 -170.5t-123.5 -58.5q-12 0 -24.5 1.5t-26.5 4.5l-107 27q-2 0 -9 2q-35 8 -44 8q-42 0 -65 -21t-37 -71h-58q24 117 72 174t125 57
q16 0 32.5 -2t30.5 -6l110 -27q12 -3 24 -4.5t26 -1.5q34 0 56 22t32 66h58z" />
    <glyph glyph-name="OE" unicode="&#x152;" horiz-adv-x="2322" 
d="M1171 317v834q0 140 -70 200t-233 60q-253 0 -388.5 -174.5t-135.5 -501.5q0 -320 133 -498t373 -178q178 0 249.5 57.5t71.5 200.5zM1366 0q-166 0 -346.5 -19.5t-196.5 -19.5q-145 0 -274.5 54.5t-229.5 156.5q-105 109 -162 254.5t-57 308.5t57 307.5t162 253.5
q101 104 230.5 158.5t273.5 54.5q21 0 201 -19.5t342 -19.5h801v-325h-80q-15 115 -72.5 165t-177.5 50h-446v-535h217q107 0 150.5 42.5t53.5 156.5h76v-514h-76q-11 119 -52 162t-140 43h-229v-432q0 -108 35.5 -141t138.5 -33h282q136 0 212 59t120 197h78l-66 -365h-825
z" />
    <glyph glyph-name="oe" unicode="&#x153;" horiz-adv-x="1890" 
d="M987 158q-79 -94 -177.5 -142.5t-213.5 -48.5q-217 0 -364.5 159.5t-147.5 395.5t147.5 394.5t364.5 158.5q113 0 212 -48.5t177 -141.5q76 96 167.5 143t201.5 47q219 0 338.5 -141t119.5 -399h-714v-39q0 -189 83 -291.5t236 -102.5q91 0 165 46t151 149l86 -51
q-71 -141 -176.5 -210t-251.5 -69q-126 0 -225 47t-179 144zM1104 647h489q-6 154 -68 239t-167 85q-100 0 -169 -87.5t-85 -236.5zM315 520q0 -213 75.5 -335t205.5 -122q128 0 204.5 123t76.5 334q0 213 -76.5 337t-204.5 124q-129 0 -205 -123.5t-76 -337.5z" />
    <glyph glyph-name="endash" unicode="&#x2013;" 
d="M0 453v137h1024v-137h-1024z" />
    <glyph glyph-name="emdash" unicode="&#x2014;" horiz-adv-x="2048" 
d="M0 590h2048v-137h-2048v137z" />
    <glyph glyph-name="quotedblleft" unicode="&#x201c;" horiz-adv-x="915" 
d="M807 1444q-86 -54 -132 -110.5t-46 -108.5q0 -35 47 -48q22 -6 37 -12q36 -14 58 -44.5t22 -67.5q0 -56 -39.5 -93.5t-96.5 -37.5q-72 0 -115.5 55t-43.5 147q0 117 67.5 212.5t204.5 170.5zM406 1444q-88 -54 -134.5 -111t-46.5 -108q0 -35 48 -48q24 -6 39 -12
q35 -14 56 -44t21 -68q0 -56 -38 -93.5t-95 -37.5q-73 0 -117.5 55t-44.5 147q0 117 68 212.5t205 170.5z" />
    <glyph glyph-name="quotedblright" unicode="&#x201d;" horiz-adv-x="915" 
d="M98 985q88 54 134.5 110.5t46.5 108.5q0 34 -47 46q-25 6 -40 12q-35 13 -56 44.5t-21 69.5q0 56 39 93.5t96 37.5q72 0 116 -55t44 -147q0 -117 -68 -212.5t-205 -170.5zM502 985q86 54 132 110.5t46 108.5q0 34 -46 46q-23 6 -39 12q-34 13 -55.5 44.5t-21.5 69.5
q0 56 38.5 93.5t94.5 37.5q73 0 117.5 -55t44.5 -147q0 -116 -67.5 -211t-204.5 -172z" />
    <glyph glyph-name="quoteleft" unicode="&#x2018;" horiz-adv-x="584" 
d="M434 1444q-87 -54 -133.5 -111t-46.5 -108q0 -35 48 -48q23 -6 38 -12q36 -14 57 -44t21 -68q0 -56 -39 -93.5t-96 -37.5q-73 0 -116.5 55t-43.5 147q0 117 68 212.5t204 170.5z" />
    <glyph glyph-name="quoteright" unicode="&#x2019;" horiz-adv-x="584" 
d="M135 987q86 54 132 110.5t46 108.5q0 34 -45 46q-24 6 -39 12q-35 13 -56 44.5t-21 69.5q0 56 38 93.5t95 37.5q73 0 117 -55t44 -147q0 -118 -68 -214t-204 -171z" />
    <glyph glyph-name="divide" unicode="&#xf7;" horiz-adv-x="1706" 
d="M854 365q47 0 81 -34t34 -81t-33.5 -81t-81.5 -34t-81.5 33.5t-33.5 81.5t34 81.5t81 33.5zM254 670h1198v-117h-1198v117zM854 1085q48 0 81.5 -33.5t33.5 -80.5q0 -48 -33.5 -81.5t-81.5 -33.5q-49 0 -82 33.5t-33 81.5q0 47 34 80.5t81 33.5z" />
    <glyph glyph-name="lozenge" unicode="&#x25ca;" horiz-adv-x="1012" 
d="M506 1409l-385 -817l385 -825l385 825zM506 1653l500 -1061l-500 -1069l-500 1069z" />
    <glyph glyph-name="ydieresis" unicode="&#xff;" horiz-adv-x="1143" 
d="M526 10l-401 844q-27 58 -60 85t-85 38v65h493v-65q-65 -13 -94 -32t-29 -48q0 -37 32 -108q4 -8 5 -11l174 -375q24 -52 39 -89t29 -74q12 39 28.5 83t36.5 91l148 358q12 28 18 53t6 47q0 44 -27.5 66t-113.5 39v65h424v-65q-102 -16 -160 -155q-4 -9 -6 -13l-381 -899
l-4 -10q-167 -392 -365 -392q-105 0 -165 50.5t-60 138.5q0 57 32.5 94t82.5 37q44 0 72 -28t28 -72q0 -17 -4 -41.5t-4 -32.5q1 -23 10 -32t31 -9q53 0 101 50t87 147zM641 1350q0 45 33.5 78.5t78.5 33.5q46 0 79.5 -33t33.5 -79q0 -50 -32 -81.5t-81 -31.5q-48 0 -80 32
t-32 81zM276 1350q0 44 34.5 78t80.5 34t78 -33t32 -79q0 -50 -30.5 -81.5t-79.5 -31.5q-50 0 -82.5 32t-32.5 81z" />
    <glyph glyph-name="Ydieresis" unicode="&#x178;" horiz-adv-x="1481" 
d="M858 639v-401q0 -87 43.5 -123.5t150.5 -38.5l1 -76h-617l1 76q105 1 149.5 38t44.5 124v389l-422 557q-2 2 -7 9q-134 180 -247 204v73h620v-73q-72 0 -111.5 -20.5t-39.5 -57.5q0 -24 12 -54t35 -61l326 -444l319 434q24 33 35.5 60.5t11.5 50.5q0 44 -40 68t-113 24
h-17v73h539v-73q-64 -9 -113.5 -42.5t-126.5 -137.5zM811 1782q0 45 33.5 78.5t78.5 33.5q46 0 79.5 -33t33.5 -79q0 -50 -32 -81.5t-81 -31.5q-48 0 -80 32t-32 81zM446 1782q0 44 34.5 78t80.5 34t78 -33t32 -79q0 -50 -30.5 -81.5t-79.5 -31.5q-50 0 -82.5 32t-32.5 81z
" />
    <glyph glyph-name="fraction" unicode="&#x2215;" horiz-adv-x="342" 
d="M559 1507h123l-934 -1546h-113z" />
    <glyph glyph-name="currency" unicode="&#xa4;" horiz-adv-x="1241" 
d="M623 1200q-130 0 -222 -92t-92 -221q0 -131 91.5 -223.5t222.5 -92.5q129 0 221 93t92 223q0 129 -91.5 221t-221.5 92zM158 1419l207 -207q60 46 122.5 68.5t133.5 22.5t135.5 -22.5t124.5 -68.5l204 207l72 -73l-205 -205q43 -57 64.5 -121t21.5 -135t-21.5 -135.5
t-64.5 -120.5l205 -205l-72 -74l-204 207q-57 -44 -121.5 -66t-138.5 -22t-136.5 21.5t-119.5 66.5l-207 -207l-72 74l207 205q-44 58 -66 122t-22 134q0 69 22 133.5t66 122.5l-207 205z" />
    <glyph glyph-name="guilsinglleft" unicode="&#x2039;" horiz-adv-x="606" 
d="M80 522l375 451h88l-234 -451l254 -450h-108z" />
    <glyph glyph-name="guilsinglright" unicode="&#x203a;" horiz-adv-x="606" 
d="M526 522l-372 -450h-91l234 450l-254 451h111z" />
    <glyph glyph-name="fi" unicode="&#xf001;" horiz-adv-x="1307" 
d="M731 1042q108 0 201.5 8t175.5 23v-852q0 -91 34.5 -122.5t126.5 -32.5l1 -66h-525l1 66q91 3 124 34t33 121v565q0 88 -34.5 121t-123.5 33h-317v-719q0 -84 43.5 -119t148.5 -36l1 -66h-558v66q94 5 128 37.5t34 121.5v715h-180v102h180v39q0 218 91.5 339.5
t252.5 121.5q98 0 164 -48t66 -118q0 -54 -30 -87.5t-77 -33.5q-49 0 -77.5 27.5t-28.5 75.5q0 5 1 23t1 30q0 16 -17.5 28.5t-42.5 12.5q-50 0 -78 -48t-28 -136t1.5 -135.5t4.5 -89.5zM868 1403q0 55 38 93t93 38t92 -38t37 -93q0 -54 -37.5 -92.5t-91.5 -38.5
q-55 0 -93 38t-38 93z" />
    <glyph glyph-name="fl" unicode="&#xf002;" horiz-adv-x="1307" 
d="M225 940h-180v102h180q0 8 -1 23t-1 22q0 214 92.5 334.5t253.5 120.5q61 0 108 -17.5t81 -51.5q41 8 160 31.5t190 37.5v-1321q0 -91 34.5 -122.5t126.5 -32.5l1 -66h-525l1 66q91 3 124 34t33 121v1032q0 79 -23.5 110.5t-84.5 39.5q2 -15 3 -22t1 -13q0 -49 -30.5 -81
t-76.5 -32q-49 0 -77.5 27.5t-28.5 75.5q0 5 1 23t1 30q0 16 -17.5 28.5t-42.5 12.5q-50 0 -78 -48t-28 -136q0 -59 1.5 -115.5t4.5 -109.5l303 -1v-102h-303v-719q0 -84 43.5 -119t148.5 -36l1 -66h-558v66q94 5 128 37.5t34 121.5v715z" />
    <glyph glyph-name="daggerdbl" unicode="&#x2021;" 
d="M391 633q46 74 70 157.5t24 165.5q0 2 -1 15.5t-1 23.5h-12q-56 0 -145 -38.5t-129 -38.5q-50 0 -78.5 27t-28.5 75q0 47 31 75.5t82 28.5q26 0 117.5 -36.5t164.5 -38.5v20q0 112 -41 220t-41 114q0 48 30 76t81 28q48 0 77.5 -28.5t29.5 -75.5q0 -9 -41 -113t-41 -207
q0 -4 1 -16t1 -18q70 3 161 39t119 36q51 0 82 -28.5t31 -75.5q0 -48 -28.5 -75t-78.5 -27q-33 0 -126.5 38t-163.5 41q3 -116 26.5 -206t69.5 -158q-46 -71 -70 -154.5t-24 -167.5q0 -1 1 -14.5t1 -24.5h12q56 0 145 39t129 39q50 0 78.5 -27t28.5 -75q0 -47 -31 -76
t-82 -29q-26 0 -117.5 37t-164.5 39v-20q0 -112 41 -220t41 -114q0 -48 -30 -76.5t-81 -28.5q-48 0 -77.5 29t-29.5 76q0 9 41 113t41 206q0 5 -1 17t-1 18q-70 -3 -161 -39.5t-119 -36.5q-51 0 -82 29t-31 76q0 48 28.5 75t78.5 27q33 0 126 -39t164 -43q-3 116 -27 207
t-69 158z" />
    <glyph glyph-name="periodcentered" unicode="&#xb7;" horiz-adv-x="584" 
d="M160 743q0 56 38 95t93 39t94 -39t39 -95q0 -55 -39 -93t-94 -38t-93 38t-38 93z" />
    <glyph glyph-name="quotesinglbase" unicode="&#x201a;" horiz-adv-x="584" 
d="M127 -287q87 54 133.5 111t46.5 108q0 35 -45 46q-24 6 -39 12q-36 14 -58 45.5t-22 68.5q0 56 39.5 94t96.5 38q72 0 115.5 -55t43.5 -148q0 -118 -67.5 -213.5t-204.5 -171.5z" />
    <glyph glyph-name="quotedblbase" unicode="&#x201e;" horiz-adv-x="915" 
d="M485 -287q87 54 133 110.5t46 108.5q-1 35 -46 46q-23 6 -39 12q-35 14 -56 45t-21 69q0 56 38 94t95 38q73 0 117.5 -55.5t44.5 -147.5q0 -118 -68.5 -214t-204.5 -171zM82 -287q87 54 133.5 111t46.5 108q0 34 -47 46q-24 6 -39 12q-35 14 -56.5 45t-21.5 69
q0 56 38.5 94t94.5 38q73 0 117.5 -55.5t44.5 -147.5q0 -118 -68 -214t-204 -171z" />
    <glyph glyph-name="perthousand" unicode="&#x2030;" horiz-adv-x="2636" 
d="M1862 322q0 156 97.5 259t244.5 103q149 0 239 -89t90 -235q0 -155 -97 -257.5t-243 -102.5q-148 0 -239.5 89t-91.5 233zM2028 342q0 -134 41.5 -203t121.5 -69q81 0 130 73.5t49 198.5q0 133 -42.5 202.5t-123.5 69.5t-128.5 -73t-47.5 -199zM1251 1518h113l-815 -1565
h-113zM102 1108q0 157 97 259.5t243 102.5q150 0 241 -88.5t91 -234.5q0 -155 -98 -258t-244 -103q-147 0 -238.5 89t-91.5 233zM266 1128q0 -134 42 -203t122 -69q81 0 129.5 73.5t48.5 198.5q0 135 -41.5 204t-122.5 69t-129.5 -73.5t-48.5 -199.5zM1028 322q0 156 98 259
t244 103q149 0 239.5 -89t90.5 -235q0 -155 -98 -257.5t-244 -102.5q-148 0 -239 88.5t-91 233.5zM1192 342q0 -134 41.5 -203t122.5 -69t130.5 74t49.5 198q0 133 -42.5 202.5t-123.5 69.5t-129.5 -73.5t-48.5 -198.5z" />
    <glyph glyph-name="Acircumflex" unicode="&#xc2;" horiz-adv-x="1540" 
d="M455 604h503l-241 570zM-39 0v76q69 9 114 48.5t87 129.5l567 1216h90l545 -1208q44 -99 97.5 -140t137.5 -46v-76h-649l1 76q94 5 134.5 29.5t40.5 74.5q0 25 -6.5 53.5t-19.5 57.5l-86 192h-611l-81 -190q-13 -30 -19 -55t-6 -48q0 -48 34.5 -72.5t135.5 -41.5v-76
h-506zM483 1620l227 348h134l229 -348h-74l-221 194l-221 -194h-74z" />
    <glyph glyph-name="Ecircumflex" unicode="&#xca;" horiz-adv-x="1421" 
d="M74 0v76q100 3 141 39.5t41 122.5v997q0 86 -41.5 122.5t-140.5 39.5v73h1198v-325h-80q-16 121 -75.5 168t-207.5 47h-426v-535h230q107 0 150.5 42.5t54.5 156.5h75v-514h-75q-11 117 -53 161t-142 44h-240v-432q0 -110 35.5 -143.5t145.5 -33.5h305q124 0 198 61
t117 198h78l-66 -365h-1222zM416 1620l227 348h134l229 -348h-74l-221 194l-221 -194h-74z" />
    <glyph glyph-name="Aacute" unicode="&#xc1;" horiz-adv-x="1540" 
d="M455 604h503l-241 570zM-39 0v76q69 9 114 48.5t87 129.5l567 1216h90l545 -1208q44 -99 97.5 -140t137.5 -46v-76h-649l1 76q94 5 134.5 29.5t40.5 74.5q0 25 -6.5 53.5t-19.5 57.5l-86 192h-611l-81 -190q-13 -30 -19 -55t-6 -48q0 -48 34.5 -72.5t135.5 -41.5v-76
h-506zM602 1620l276 299q27 29 55 45t52 16q31 0 53.5 -23t22.5 -55q0 -26 -17.5 -47.5t-66.5 -52.5l-301 -182h-74z" />
    <glyph glyph-name="Edieresis" unicode="&#xcb;" horiz-adv-x="1421" 
d="M74 0v76q100 3 141 39.5t41 122.5v997q0 86 -41.5 122.5t-140.5 39.5v73h1198v-325h-80q-16 121 -75.5 168t-207.5 47h-426v-535h230q107 0 150.5 42.5t54.5 156.5h75v-514h-75q-11 117 -53 161t-142 44h-240v-432q0 -110 35.5 -143.5t145.5 -33.5h305q124 0 198 61
t117 198h78l-66 -365h-1222zM781 1782q0 45 33.5 78.5t78.5 33.5q46 0 79.5 -33t33.5 -79q0 -50 -32 -81.5t-81 -31.5q-48 0 -80 32t-32 81zM416 1782q0 44 34.5 78t80.5 34t78 -33t32 -79q0 -50 -30.5 -81.5t-79.5 -31.5q-50 0 -82.5 32t-32.5 81z" />
    <glyph glyph-name="Egrave" unicode="&#xc8;" horiz-adv-x="1421" 
d="M74 0v76q100 3 141 39.5t41 122.5v997q0 86 -41.5 122.5t-140.5 39.5v73h1198v-325h-80q-16 121 -75.5 168t-207.5 47h-426v-535h230q107 0 150.5 42.5t54.5 156.5h75v-514h-75q-11 117 -53 161t-142 44h-240v-432q0 -110 35.5 -143.5t145.5 -33.5h305q124 0 198 61
t117 198h78l-66 -365h-1222zM887 1620h-74l-301 182q-49 31 -66.5 52.5t-17.5 47.5q0 32 22.5 55t53.5 23q24 0 52 -16t55 -45z" />
    <glyph glyph-name="Iacute" unicode="&#xcd;" horiz-adv-x="743" 
d="M487 238q0 -88 43 -124t149 -38l1 -76h-617l1 76q107 2 150.5 38.5t43.5 123.5v997q0 87 -44 123.5t-151 38.5v73h617v-73q-106 -2 -149.5 -38.5t-43.5 -123.5v-997zM197 1620l276 299q27 29 55 45t52 16q31 0 53.5 -23t22.5 -55q0 -26 -17.5 -47.5t-66.5 -52.5
l-301 -182h-74z" />
    <glyph glyph-name="Icircumflex" unicode="&#xce;" horiz-adv-x="743" 
d="M487 238q0 -88 43 -124t149 -38l1 -76h-617l1 76q107 2 150.5 38.5t43.5 123.5v997q0 87 -44 123.5t-151 38.5v73h617v-73q-106 -2 -149.5 -38.5t-43.5 -123.5v-997zM78 1620l227 348h134l229 -348h-74l-221 194l-221 -194h-74z" />
    <glyph glyph-name="Idieresis" unicode="&#xcf;" horiz-adv-x="743" 
d="M487 238q0 -88 43 -124t149 -38l1 -76h-617l1 76q107 2 150.5 38.5t43.5 123.5v997q0 87 -44 123.5t-151 38.5v73h617v-73q-106 -2 -149.5 -38.5t-43.5 -123.5v-997zM443 1782q0 45 33.5 78.5t78.5 33.5q46 0 79.5 -33t33.5 -79q0 -50 -32 -81.5t-81 -31.5q-48 0 -80 32
t-32 81zM78 1782q0 44 34.5 78t80.5 34t78 -33t32 -79q0 -50 -30.5 -81.5t-79.5 -31.5q-50 0 -82.5 32t-32.5 81z" />
    <glyph glyph-name="Igrave" unicode="&#xcc;" horiz-adv-x="743" 
d="M487 238q0 -88 43 -124t149 -38l1 -76h-617l1 76q107 2 150.5 38.5t43.5 123.5v997q0 87 -44 123.5t-151 38.5v73h617v-73q-106 -2 -149.5 -38.5t-43.5 -123.5v-997zM549 1620h-74l-301 182q-49 31 -66.5 52.5t-17.5 47.5q0 32 22.5 55t53.5 23q24 0 52 -16t55 -45z" />
    <glyph glyph-name="Oacute" unicode="&#xd3;" horiz-adv-x="1659" 
d="M829 63q220 0 350 180.5t130 491.5t-130 491.5t-350 180.5q-219 0 -348 -180.5t-129 -491.5t129 -491.5t348 -180.5zM829 -39q-147 0 -279 54.5t-231 156.5q-105 107 -162 253t-57 310t56.5 309t162.5 252q102 104 233.5 158.5t276.5 54.5q146 0 277.5 -54.5
t232.5 -158.5q107 -108 164.5 -253t57.5 -308t-57.5 -309t-164.5 -254q-99 -102 -230.5 -156.5t-279.5 -54.5zM653 1620l276 299q27 29 55 45t52 16q31 0 53.5 -23t22.5 -55q0 -26 -17.5 -47.5t-66.5 -52.5l-301 -182h-74z" />
    <glyph glyph-name="Ocircumflex" unicode="&#xd4;" horiz-adv-x="1659" 
d="M829 63q220 0 350 180.5t130 491.5t-130 491.5t-350 180.5q-219 0 -348 -180.5t-129 -491.5t129 -491.5t348 -180.5zM829 -39q-147 0 -279 54.5t-231 156.5q-105 107 -162 253t-57 310t56.5 309t162.5 252q102 104 233.5 158.5t276.5 54.5q146 0 277.5 -54.5
t232.5 -158.5q107 -108 164.5 -253t57.5 -308t-57.5 -309t-164.5 -254q-99 -102 -230.5 -156.5t-279.5 -54.5zM534 1620l227 348h134l229 -348h-74l-221 194l-221 -194h-74z" />
    <glyph glyph-name="apple" unicode="&#xf000;" horiz-adv-x="1618" 
d="M836 1216q-1 6 -1.5 14t-0.5 23q0 124 95 229.5t236 131.5q1 -10 1.5 -23t0.5 -39q0 -131 -103.5 -234.5t-203.5 -103.5h-8q-3 0 -7.5 1t-8.5 1zM1505 403q-114 -247 -205 -342.5t-204 -95.5q-50 0 -131.5 33t-122.5 33q-45 0 -131 -33t-127 -33q-64 0 -128.5 44
t-129.5 132q-102 140 -157.5 295.5t-55.5 300.5q0 219 125 356.5t323 137.5q68 0 155 -34t124 -34q34 0 121.5 35t152.5 35q110 0 198 -40t161 -124q-102 -65 -151.5 -145.5t-49.5 -182.5q0 -113 60 -200t173 -138z" />
    <glyph glyph-name="Ograve" unicode="&#xd2;" horiz-adv-x="1659" 
d="M829 63q220 0 350 180.5t130 491.5t-130 491.5t-350 180.5q-219 0 -348 -180.5t-129 -491.5t129 -491.5t348 -180.5zM829 -39q-147 0 -279 54.5t-231 156.5q-105 107 -162 253t-57 310t56.5 309t162.5 252q102 104 233.5 158.5t276.5 54.5q146 0 277.5 -54.5
t232.5 -158.5q107 -108 164.5 -253t57.5 -308t-57.5 -309t-164.5 -254q-99 -102 -230.5 -156.5t-279.5 -54.5zM1005 1620h-74l-301 182q-49 31 -66.5 52.5t-17.5 47.5q0 32 22.5 55t53.5 23q24 0 52 -16t55 -45z" />
    <glyph glyph-name="Uacute" unicode="&#xda;" horiz-adv-x="1659" 
d="M1305 1221q0 92 -45 134t-142 42h-6v73h500v-73q-95 -2 -138.5 -44.5t-43.5 -131.5v-658q0 -306 -145.5 -454t-444.5 -148q-301 0 -449.5 134t-148.5 403v737q0 86 -41 122t-142 40v73h598v-73q-106 -2 -150 -38.5t-44 -123.5v-715q0 -218 100.5 -324t306.5 -106
q225 0 330 113.5t105 357.5v660zM682 1620l276 299q27 29 55 45t52 16q31 0 53.5 -23t22.5 -55q0 -26 -17.5 -47.5t-66.5 -52.5l-301 -182h-74z" />
    <glyph glyph-name="Ucircumflex" unicode="&#xdb;" horiz-adv-x="1659" 
d="M1305 1221q0 92 -45 134t-142 42h-6v73h500v-73q-95 -2 -138.5 -44.5t-43.5 -131.5v-658q0 -306 -145.5 -454t-444.5 -148q-301 0 -449.5 134t-148.5 403v737q0 86 -41 122t-142 40v73h598v-73q-106 -2 -150 -38.5t-44 -123.5v-715q0 -218 100.5 -324t306.5 -106
q225 0 330 113.5t105 357.5v660zM563 1620l227 348h134l229 -348h-74l-221 194l-221 -194h-74z" />
    <glyph glyph-name="Ugrave" unicode="&#xd9;" horiz-adv-x="1659" 
d="M1305 1221q0 92 -45 134t-142 42h-6v73h500v-73q-95 -2 -138.5 -44.5t-43.5 -131.5v-658q0 -306 -145.5 -454t-444.5 -148q-301 0 -449.5 134t-148.5 403v737q0 86 -41 122t-142 40v73h598v-73q-106 -2 -150 -38.5t-44 -123.5v-715q0 -218 100.5 -324t306.5 -106
q225 0 330 113.5t105 357.5v660zM1034 1620h-74l-301 182q-49 31 -66.5 52.5t-17.5 47.5q0 32 22.5 55t53.5 23q24 0 52 -16t55 -45z" />
    <glyph glyph-name="dotlessi" unicode="&#x131;" horiz-adv-x="627" 
d="M428 221q0 -91 34.5 -122.5t126.5 -32.5l1 -66h-524v66q91 3 124 34t33 121v545q0 89 -32.5 119.5t-124.5 34.5v63q89 14 180.5 36.5t181.5 53.5v-852z" />
    <glyph glyph-name="circumflex" unicode="&#x2c6;" 
d="M217 1188l227 348h134l229 -348h-74l-221 194l-221 -194h-74z" />
    <glyph glyph-name="tilde" unicode="&#x2dc;" 
d="M795 1505q-22 -112 -71.5 -170.5t-123.5 -58.5q-12 0 -24.5 1.5t-26.5 4.5l-107 27q-2 0 -9 2q-35 8 -44 8q-42 0 -65 -21t-37 -71h-58q24 117 72 174t125 57q16 0 32.5 -2t30.5 -6l110 -27q12 -3 24 -4.5t26 -1.5q34 0 56 22t32 66h58z" />
    <glyph glyph-name="macron" unicode="&#xaf;" 
d="M242 1280v141h540v-141h-540z" />
    <glyph glyph-name="breve" unicode="&#x2d8;" 
d="M211 1501h65q18 -70 73.5 -101.5t162.5 -31.5t162 31.5t71 101.5h66q-22 -137 -97.5 -207.5t-201.5 -70.5t-203 71t-98 207z" />
    <glyph glyph-name="dotaccent" unicode="&#x2d9;" 
d="M395 1350q0 48 35 84t82 36t83 -36t36 -84q0 -51 -34 -84t-85 -33t-84 33t-33 84z" />
    <glyph glyph-name="ring" unicode="&#x2da;" 
d="M371 1391q0 -61 40.5 -102.5t100.5 -41.5t100.5 41.5t40.5 102.5q0 59 -40.5 100t-100.5 41t-100.5 -41t-40.5 -100zM264 1391q0 104 72 175.5t176 71.5t176 -71.5t72 -175.5q0 -105 -72 -176.5t-176 -71.5t-176 71.5t-72 176.5z" />
    <glyph glyph-name="cedilla" unicode="&#xb8;" 
d="M268 -379l39 90q60 -38 119.5 -58t112.5 -20q56 0 83 22t27 69q0 42 -27 64t-81 22q-14 0 -29.5 -2t-31.5 -4l-1 196h66v-115q11 2 23.5 3t37.5 1q88 0 137.5 -43.5t49.5 -121.5q0 -84 -59.5 -131.5t-166.5 -47.5q-59 0 -132 19t-167 57z" />
    <glyph glyph-name="hungarumlaut" unicode="&#x2dd;" 
d="M567 1188l174 282q24 39 47.5 57.5t51.5 18.5q31 0 51 -20.5t20 -52.5q0 -22 -15.5 -45.5t-47.5 -51.5l-221 -188h-60zM322 1188l133 274q20 44 43.5 65t52.5 21q28 0 50 -22.5t22 -50.5q0 -19 -11 -38t-45 -55l-184 -194h-61z" />
    <glyph glyph-name="ogonek" unicode="&#x2db;" 
d="M629 0h-4q-59 0 -115.5 -75t-56.5 -152q0 -54 20.5 -82.5t58.5 -28.5q36 0 67.5 20t55.5 58l45 -31q-40 -77 -96 -116t-127 -39t-114.5 41.5t-43.5 109.5q0 77 54 152t157 143h99z" />
    <glyph glyph-name="caron" unicode="&#x2c7;" 
d="M217 1536h74l221 -195l221 195h74l-229 -348h-134z" />
    <glyph glyph-name="Lslash" unicode="&#x141;" horiz-adv-x="1298" 
d="M74 0v76q100 3 141 39.5t41 122.5v378l-256 -192v121l256 192v498q0 86 -41.5 122.5t-140.5 39.5v73h618v-73h-10q-109 0 -154 -37t-45 -125v-356l414 311v-119l-414 -313v-471q0 -110 35.5 -142t167.5 -32h205q141 0 219.5 62t134.5 220h74l-76 -395h-1169z" />
    <glyph glyph-name="lslash" unicode="&#x142;" horiz-adv-x="627" 
d="M215 670l-215 -162v113l215 161v471q0 88 -31.5 119t-117.5 35v66q33 6 154.5 29.5t197.5 39.5v-633l215 160v-113l-215 -161v-574q0 -90 35 -122t128 -33l1 -66h-525l1 66q91 3 124 34t33 121v449z" />
    <glyph glyph-name="Scaron" unicode="&#x160;" horiz-adv-x="1356" 
d="M217 -25h-78l-24 476h71q76 -192 195 -286.5t285 -94.5q147 0 239 76.5t92 197.5q0 97 -64 161t-224 122l-164 59q-214 76 -306 170.5t-92 235.5q0 181 136 297t352 116q98 0 208.5 -41t125.5 -41q25 0 44.5 19t33.5 55h69l10 -428h-67q-50 160 -157.5 244t-262.5 84
q-133 0 -214 -65t-81 -169q0 -81 60 -137t208 -108l185 -66q231 -81 327.5 -180.5t96.5 -249.5q0 -198 -149 -328.5t-380 -130.5q-130 0 -263 49t-140 49q-25 0 -41 -19t-31 -67zM383 1968h74l221 -195l221 195h74l-229 -348h-134z" />
    <glyph glyph-name="scaron" unicode="&#x161;" horiz-adv-x="981" 
d="M96 -23v379h66q41 -141 130 -211.5t224 -70.5q84 0 137.5 45.5t53.5 116.5q0 59 -37 97t-170 89l-135 51q-132 50 -195.5 124.5t-63.5 178.5q0 130 98 214.5t251 84.5q70 0 156.5 -29.5t105.5 -29.5q17 0 30 12.5t21 38.5h63v-322h-69q-34 115 -110.5 175.5t-186.5 60.5
q-85 0 -137 -39t-52 -102q0 -59 39.5 -97.5t196.5 -97.5l154 -59q104 -40 162.5 -118t58.5 -179q0 -140 -97.5 -229t-252.5 -89q-99 0 -197 38t-104 38q-24 0 -41.5 -18t-28.5 -52h-70zM197 1536h74l221 -195l221 195h74l-229 -348h-134z" />
    <glyph glyph-name="Zcaron" unicode="&#x17d;" horiz-adv-x="1436" 
d="M1300 0h-1228v82l915 1276h-412q-192 0 -269.5 -52.5t-106.5 -191.5h-74l20 356h1145v-67l-932 -1288h494q200 0 290 65.5t148 243.5h72zM424 1968h74l221 -195l221 195h74l-229 -348h-134z" />
    <glyph glyph-name="zcaron" unicode="&#x17e;" horiz-adv-x="1090" 
d="M39 0v61l674 881h-277q-136 0 -192 -41.5t-72 -150.5h-72v292h887v-71l-668 -869h316q146 0 210.5 47.5t100.5 172.5h72l-33 -322h-946zM250 1536h74l221 -195l221 195h74l-229 -348h-134z" />
    <glyph glyph-name="brokenbar" unicode="&#xa6;" 
d="M449 408h126v-758h-126v758zM449 1432h126v-758h-126v758z" />
    <glyph glyph-name="Eth" unicode="&#xd0;" horiz-adv-x="1677" 
d="M483 1362v-543h426v-96h-426v-449q0 -87 45 -124t150 -37q331 0 493 154.5t162 469.5q0 173 -54 302.5t-159 209.5q-79 61 -178.5 87t-269.5 26h-189zM74 0v76q100 3 141 39.5t41 122.5v485h-256v96h256v416q0 86 -41.5 122.5t-140.5 39.5v73h559q249 0 380 -27.5
t234 -90.5q158 -98 248 -261.5t90 -355.5q0 -193 -89.5 -357.5t-246.5 -260.5q-102 -63 -228 -90t-388 -27h-559z" />
    <glyph glyph-name="eth" unicode="&#xf0;" horiz-adv-x="1204" 
d="M795 1339q167 -160 248 -353.5t81 -434.5q0 -260 -146 -422t-376 -162q-221 0 -371.5 159.5t-150.5 395.5q0 116 41 219.5t119 182.5q72 73 165 112t197 39q49 0 95.5 -12t90.5 -37q-33 80 -68.5 142t-76.5 112l-313 -125l-33 68l287 118q-24 29 -64.5 65.5t-93.5 78.5
l66 74q57 -34 114.5 -74t116.5 -88l293 114l26 -73zM602 981q-131 0 -210 -122t-79 -329q0 -220 77 -343.5t212 -123.5q133 0 211 123t78 334q0 214 -78.5 337.5t-210.5 123.5z" />
    <glyph glyph-name="Yacute" unicode="&#xdd;" horiz-adv-x="1481" 
d="M858 639v-401q0 -87 43.5 -123.5t150.5 -38.5l1 -76h-617l1 76q105 1 149.5 38t44.5 124v389l-422 557q-2 2 -7 9q-134 180 -247 204v73h620v-73q-72 0 -111.5 -20.5t-39.5 -57.5q0 -24 12 -54t35 -61l326 -444l319 434q24 33 35.5 60.5t11.5 50.5q0 44 -40 68t-113 24
h-17v73h539v-73q-64 -9 -113.5 -42.5t-126.5 -137.5zM565 1620l276 299q27 29 55 45t52 16q31 0 53.5 -23t22.5 -55q0 -26 -17.5 -47.5t-66.5 -52.5l-301 -182h-74z" />
    <glyph glyph-name="yacute" unicode="&#xfd;" horiz-adv-x="1143" 
d="M526 10l-401 844q-27 58 -60 85t-85 38v65h493v-65q-65 -13 -94 -32t-29 -48q0 -37 32 -108q4 -8 5 -11l174 -375q24 -52 39 -89t29 -74q12 39 28.5 83t36.5 91l148 358q12 28 18 53t6 47q0 44 -27.5 66t-113.5 39v65h424v-65q-102 -16 -160 -155q-4 -9 -6 -13l-381 -899
l-4 -10q-167 -392 -365 -392q-105 0 -165 50.5t-60 138.5q0 57 32.5 94t82.5 37q44 0 72 -28t28 -72q0 -17 -4 -41.5t-4 -32.5q1 -23 10 -32t31 -9q53 0 101 50t87 147zM395 1188l276 299q27 29 55 45t52 16q31 0 53.5 -23t22.5 -55q0 -26 -17.5 -47.5t-66.5 -52.5
l-301 -182h-74z" />
    <glyph glyph-name="Thorn" unicode="&#xde;" horiz-adv-x="1356" 
d="M74 0v76q100 3 141 39.5t41 122.5v997q0 86 -41.5 122.5t-140.5 39.5v73h592v-73q-101 -4 -142 -40t-41 -122v-53h215q291 0 440.5 -110t149.5 -322q0 -200 -169.5 -317.5t-463.5 -117.5q-37 0 -78.5 2.5t-92.5 8.5l-1 -88q0 -89 44 -125.5t151 -36.5h10v-76h-614z
M616 1073h-133v-627q67 -11 108 -15.5t68 -4.5q178 0 280.5 87.5t102.5 238.5q0 165 -103 243t-323 78z" />
    <glyph glyph-name="thorn" unicode="&#xfe;" horiz-adv-x="1249" 
d="M385 344q0 -122 68 -196t178 -74q141 0 221 123.5t80 343.5q0 179 -75 287t-198 108q-74 0 -140 -45t-134 -143v-404zM385 63v-307q0 -87 31.5 -118t118.5 -35v-68h-502v68q86 4 117.5 35t31.5 118v1497q0 88 -31.5 119t-117.5 35v66q55 11 172 34t180 35v-647
q64 89 145.5 134.5t176.5 45.5q188 0 320 -159t132 -394q0 -236 -141 -394.5t-346 -158.5q-73 0 -143.5 23.5t-143.5 70.5z" />
    <glyph glyph-name="minus" unicode="&#x2212;" horiz-adv-x="1706" 
d="M254 670h1198v-119h-1198v119z" />
    <glyph glyph-name="multiply" unicode="&#xd7;" horiz-adv-x="1706" 
d="M381 1169l477 -477l475 477l82 -82l-475 -477l475 -475l-82 -82l-475 475l-477 -475l-80 82l475 475l-475 477z" />
    <glyph glyph-name="onesuperior" unicode="&#xb9;" horiz-adv-x="770" 
d="M178 588l1 45q86 3 116.5 26t30.5 86v527q0 60 -28 80.5t-119 23.5l-1 45q66 15 136.5 31t156.5 37q-1 -14 -2 -37q-2 -42 -2 -55v-647q0 -67 32 -91.5t117 -25.5v-45h-438z" />
    <glyph glyph-name="twosuperior" unicode="&#xb2;" horiz-adv-x="770" 
d="M43 588v76l262 258q101 99 151 184.5t50 159.5q0 79 -47 127.5t-123 48.5q-51 0 -89 -26t-38 -56v-2q0 -1 12 -21t12 -39q0 -32 -22 -52.5t-57 -20.5q-38 0 -61 23t-23 61q0 71 87 127.5t208 56.5q131 0 211.5 -67t80.5 -175q0 -142 -271 -371l-24 -20l-192 -162h279
q83 0 121.5 28t68.5 112h55q-16 -54 -29.5 -115.5t-23.5 -134.5h-598z" />
    <glyph glyph-name="threesuperior" unicode="&#xb3;" horiz-adv-x="770" 
d="M257 1034l-1 60h8q111 0 174.5 46t63.5 126q0 83 -45.5 131.5t-122.5 48.5q-41 0 -65.5 -14t-24.5 -37q0 -9 7 -29.5t7 -32.5q0 -29 -24 -50t-58 -21q-35 0 -58.5 22.5t-23.5 56.5q0 65 77 109.5t196 44.5q126 0 206 -59.5t80 -153.5q0 -84 -63 -139.5t-187 -79.5
q134 -17 207.5 -79t73.5 -159q0 -112 -97 -185t-249 -73q-127 0 -208 52.5t-81 132.5q0 41 24.5 66.5t63.5 25.5q36 0 60 -20.5t24 -51.5q0 -25 -24.5 -53t-24.5 -39q0 -24 41.5 -43t101.5 -19q97 0 151 54.5t54 150.5q0 103 -66 155.5t-197 55.5z" />
    <glyph glyph-name="onehalf" unicode="&#xbd;" horiz-adv-x="1810" 
d="M1118 0v72l250 239q97 94 145 174t48 148q0 73 -45 118.5t-117 45.5q-48 0 -84.5 -24.5t-36.5 -51.5v-2q0 -2 11 -20.5t11 -34.5q0 -30 -22 -50t-55 -20q-35 0 -56.5 22t-21.5 58q0 66 83.5 119t196.5 53q125 0 202 -63t77 -165q0 -133 -261 -347l-20 -17l-184 -152h266
q80 0 117 26.5t64 104.5h55q-18 -54 -30.5 -112t-20.5 -121h-572zM1294 1507h123l-934 -1546h-112zM170 647v43q84 2 112.5 23.5t28.5 81.5v491q0 56 -27 75.5t-114 22.5v41q82 17 150.5 32.5t130.5 31.5q-3 -21 -4 -41t-1 -45v-604q0 -64 30.5 -86.5t113.5 -22.5v-43h-420z
" />
    <glyph glyph-name="onequarter" unicode="&#xbc;" horiz-adv-x="1810" 
d="M1501 311v365l-307 -365h307zM1360 0v43q85 2 113 23t28 81v97h-383v67l449 533h55v-533h147v-67h-147v-92q0 -62 29.5 -84.5t109.5 -24.5v-43h-401zM1294 1507h123l-934 -1546h-112zM170 647v43q84 2 112.5 23.5t28.5 81.5v491q0 56 -27 75.5t-114 22.5v41
q82 17 150.5 32.5t130.5 31.5q-3 -21 -4 -41t-1 -45v-604q0 -64 30.5 -86.5t113.5 -22.5v-43h-420z" />
    <glyph glyph-name="threequarters" unicode="&#xbe;" horiz-adv-x="1810" 
d="M1499 311v363l-307 -363h307zM1358 0v43q85 2 113 23t28 81v97h-383v67l449 533h55v-533h147v-67h-147v-92q0 -62 30 -85t109 -24v-43h-401zM1292 1507h123l-934 -1546h-112zM246 1063v55h6q105 0 166 43.5t61 118.5q0 77 -43 122.5t-117 45.5q-38 0 -63 -13.5t-25 -33.5
q0 -9 7.5 -28t7.5 -30q0 -27 -23 -47t-55 -20q-33 0 -55.5 21t-22.5 53q0 62 73.5 103.5t186.5 41.5q121 0 198 -56.5t77 -144.5q0 -77 -61.5 -129t-178.5 -73q127 -16 197.5 -74t70.5 -148q0 -105 -92 -174t-237 -69q-123 0 -200 49t-77 125q0 37 23.5 60.5t60.5 23.5
q34 0 57 -19t23 -47q0 -22 -23.5 -49t-23.5 -37q0 -22 40 -39.5t97 -17.5q93 0 145 50.5t52 141.5q0 96 -63 144.5t-189 50.5z" />
    <glyph glyph-name="franc" unicode="&#x20a3;" horiz-adv-x="2193" 
d="M483 238q0 -88 44.5 -125t150.5 -37h10v-76h-614v76q100 3 141 39.5t41 122.5v997q0 86 -41.5 122.5t-140.5 39.5v73h1198v-331h-84q-17 128 -74 174.5t-217 46.5h-414v-535h230q107 0 150.5 42.5t54.5 156.5h75v-514h-75q-11 117 -53 161t-142 44h-240v-477zM1710 815
q72 131 155 195.5t178 64.5q70 0 114 -42.5t44 -108.5q0 -57 -32 -90t-87 -33q-36 0 -57 13t-29 41q-3 9 -5 30q-6 49 -31 49q-59 0 -127 -76.5t-111 -198.5v-438q0 -90 36.5 -122.5t133.5 -32.5v-66h-522v66q85 4 117 35.5t32 119.5v545q0 87 -31.5 118t-117.5 36v63
q98 16 184.5 38.5t165.5 51.5z" />
    <glyph glyph-name="Gbreve" unicode="&#x11e;" horiz-adv-x="1669" 
d="M1460 103q-140 -74 -275 -110t-270 -36q-132 0 -249 33.5t-220 99.5q-170 113 -258 277t-88 368q0 186 70.5 336.5t212.5 267.5q99 84 220.5 128t252.5 44t269 -48t145 -48q25 0 45.5 21t32.5 59h77v-428h-69q-64 163 -188 252.5t-283 89.5q-238 0 -386.5 -183
t-148.5 -481q0 -311 158.5 -494t425.5 -183q95 0 169 23t107 62q13 16 19 46.5t6 91.5v170q0 107 -49 149t-195 54v75h613v-75q-88 -12 -120 -45t-32 -121v-308q0 -14 1.5 -31.5t6.5 -55.5zM535 1933h65q18 -70 73.5 -101.5t162.5 -31.5t162 31.5t71 101.5h66
q-22 -137 -97.5 -207.5t-201.5 -70.5t-203 71t-98 207z" />
    <glyph glyph-name="gbreve" unicode="&#x11f;" horiz-adv-x="1204" 
d="M426 395q-68 -41 -100.5 -73.5t-32.5 -59.5q0 -40 49 -57t182 -17l199 2h10q204 0 297.5 -66t93.5 -208q0 -176 -174 -293t-442 -117q-207 0 -335 78.5t-128 202.5q0 80 64.5 143t185.5 101q-83 10 -129.5 52t-46.5 105q0 62 43 119t143 125q-97 47 -148 121.5t-51 169.5
q0 153 126 255.5t315 102.5q66 0 125.5 -14t115.5 -43q48 68 105 101.5t123 33.5q78 0 129 -44t51 -111q0 -52 -30 -82.5t-81 -30.5q-43 0 -69.5 27t-26.5 71q0 20 11.5 41.5t11.5 26.5q0 9 -5 12.5t-16 3.5q-33 0 -64.5 -21t-76.5 -75q64 -57 94.5 -117.5t30.5 -132.5
q0 -148 -119 -246t-299 -98q-27 0 -59.5 3t-71.5 9zM328 735q0 -115 56 -182.5t153 -67.5q96 0 153.5 67t57.5 179q0 114 -58 183t-153 69q-90 0 -149.5 -70t-59.5 -178zM442 -6q-98 -22 -148 -69t-50 -118q0 -90 82 -142t227 -52q178 0 288.5 71.5t110.5 182.5
q0 70 -56 100.5t-189 30.5h-17zM301 1501h65q18 -70 73.5 -101.5t162.5 -31.5t162 31.5t71 101.5h66q-22 -137 -97.5 -207.5t-201.5 -70.5t-203 71t-98 207z" />
    <glyph glyph-name="Idotaccent" unicode="&#x130;" horiz-adv-x="743" 
d="M487 238q0 -88 43 -124t149 -38l1 -76h-617l1 76q107 2 150.5 38.5t43.5 123.5v997q0 87 -44 123.5t-151 38.5v73h617v-73q-106 -2 -149.5 -38.5t-43.5 -123.5v-997zM256 1782q0 48 35 84t82 36t83 -36t36 -84q0 -51 -34 -84t-85 -33t-84 33t-33 84z" />
    <glyph glyph-name="Scedilla" unicode="&#x15e;" horiz-adv-x="1356" 
d="M217 -25h-78l-24 476h71q76 -192 195 -286.5t285 -94.5q147 0 239 76.5t92 197.5q0 97 -64 161t-224 122l-164 59q-214 76 -306 170.5t-92 235.5q0 181 136 297t352 116q98 0 208.5 -41t125.5 -41q25 0 44.5 19t33.5 55h69l10 -428h-67q-50 160 -157.5 244t-262.5 84
q-133 0 -214 -65t-81 -169q0 -81 60 -137t208 -108l185 -66q231 -81 327.5 -180.5t96.5 -249.5q0 -198 -149 -328.5t-380 -130.5q-130 0 -263 49t-140 49q-25 0 -41 -19t-31 -67zM434 -379l39 90q60 -38 119.5 -58t112.5 -20q56 0 83 22t27 69q0 42 -27 64t-81 22
q-14 0 -29.5 -2t-31.5 -4l-1 196h66v-115q11 2 23.5 3t37.5 1q88 0 137.5 -43.5t49.5 -121.5q0 -84 -59.5 -131.5t-166.5 -47.5q-59 0 -132 19t-167 57z" />
    <glyph glyph-name="scedilla" unicode="&#x15f;" horiz-adv-x="981" 
d="M96 -23v379h66q41 -141 130 -211.5t224 -70.5q84 0 137.5 45.5t53.5 116.5q0 59 -37 97t-170 89l-135 51q-132 50 -195.5 124.5t-63.5 178.5q0 130 98 214.5t251 84.5q70 0 156.5 -29.5t105.5 -29.5q17 0 30 12.5t21 38.5h63v-322h-69q-34 115 -110.5 175.5t-186.5 60.5
q-85 0 -137 -39t-52 -102q0 -59 39.5 -97.5t196.5 -97.5l154 -59q104 -40 162.5 -118t58.5 -179q0 -140 -97.5 -229t-252.5 -89q-99 0 -197 38t-104 38q-24 0 -41.5 -18t-28.5 -52h-70zM248 -379l39 90q60 -38 119.5 -58t112.5 -20q56 0 83 22t27 69q0 42 -27 64t-81 22
q-14 0 -29.5 -2t-31.5 -4l-1 196h66v-115q11 2 23.5 3t37.5 1q88 0 137.5 -43.5t49.5 -121.5q0 -84 -59.5 -131.5t-166.5 -47.5q-59 0 -132 19t-167 57z" />
    <glyph glyph-name="Cacute" unicode="&#x106;" horiz-adv-x="1518" 
d="M1376 381l82 -57q-100 -180 -252 -269.5t-358 -89.5q-144 0 -268 44.5t-224 131.5q-128 112 -192 253.5t-64 316.5q0 143 43.5 272.5t128.5 239.5q107 137 252.5 210.5t309.5 73.5q123 0 251 -43t136 -43q27 0 51.5 19t42.5 53h69l17 -457h-78q-55 180 -169.5 274.5
t-279.5 94.5q-234 0 -378 -182.5t-144 -485.5q0 -290 149 -466.5t392 -176.5q142 0 260.5 70t222.5 217zM651 1620l276 299q27 29 55 45t52 16q31 0 53.5 -23t22.5 -55q0 -26 -17.5 -47.5t-66.5 -52.5l-301 -182h-74z" />
    <glyph glyph-name="cacute" unicode="&#x107;" horiz-adv-x="1063" 
d="M942 283l84 -54q-81 -135 -186 -200.5t-240 -65.5q-222 0 -371 158t-149 395q0 106 35.5 201t105.5 176q77 89 187 138.5t231 49.5q151 0 261 -78.5t110 -179.5q0 -53 -35 -88t-88 -35q-48 0 -79.5 30.5t-31.5 76.5q0 18 6 46t6 38q0 32 -46 61t-105 29
q-137 0 -228.5 -123t-91.5 -313q0 -204 89.5 -324.5t238.5 -120.5q85 0 159.5 45.5t137.5 137.5zM442 1188l276 299q27 29 55 45t52 16q31 0 53.5 -23t22.5 -55q0 -26 -17.5 -47.5t-66.5 -52.5l-301 -182h-74z" />
    <glyph glyph-name="Ccaron" unicode="&#x10c;" horiz-adv-x="1518" 
d="M1376 381l82 -57q-100 -180 -252 -269.5t-358 -89.5q-144 0 -268 44.5t-224 131.5q-128 112 -192 253.5t-64 316.5q0 143 43.5 272.5t128.5 239.5q107 137 252.5 210.5t309.5 73.5q123 0 251 -43t136 -43q27 0 51.5 19t42.5 53h69l17 -457h-78q-55 180 -169.5 274.5
t-279.5 94.5q-234 0 -378 -182.5t-144 -485.5q0 -290 149 -466.5t392 -176.5q142 0 260.5 70t222.5 217zM532 1968h74l221 -195l221 195h74l-229 -348h-134z" />
    <glyph glyph-name="ccaron" unicode="&#x10d;" horiz-adv-x="1063" 
d="M942 283l84 -54q-81 -135 -186 -200.5t-240 -65.5q-222 0 -371 158t-149 395q0 106 35.5 201t105.5 176q77 89 187 138.5t231 49.5q151 0 261 -78.5t110 -179.5q0 -53 -35 -88t-88 -35q-48 0 -79.5 30.5t-31.5 76.5q0 18 6 46t6 38q0 32 -46 61t-105 29
q-137 0 -228.5 -123t-91.5 -313q0 -204 89.5 -324.5t238.5 -120.5q85 0 159.5 45.5t137.5 137.5zM323 1536h74l221 -195l221 195h74l-229 -348h-134z" />
    <glyph glyph-name="dcroat" unicode="&#x111;" horiz-adv-x="1249" 
d="M860 313v480q-53 88 -112 130t-132 42q-130 0 -214.5 -116.5t-84.5 -301.5q0 -195 81 -311.5t214 -116.5q75 0 130.5 42.5t117.5 151.5zM860 1186h-313v90h313v10q0 57 -39.5 86t-126.5 35v63q103 14 194.5 31.5t176.5 40.5v-266h188v-90h-188v-905q0 -86 29.5 -121.5
t105.5 -48.5v-62q-73 -12 -152 -29.5t-176 -44.5v179q-78 -98 -159 -141.5t-183 -43.5q-180 0 -311 159t-131 392q0 236 141 394.5t346 158.5q80 0 148 -24t137 -76v213z" />
    <glyph glyph-name="periodcentered" unicode="&#x2219;" horiz-adv-x="584" 
d="M160 743q0 56 38 95t93 39t94 -39t39 -95q0 -55 -39 -93t-94 -38t-93 38t-38 93z" />
    <glyph glyph-name="sfthyphen" unicode="&#xad;" horiz-adv-x="711" 
d="M96 430v182h518v-182h-518z" />
    </font>
</defs>
</svg>
